ISO-10303-21;
HEADER;
/* Generated by software containing ST-Developer
 * from STEP Tools, Inc. (www.steptools.com) 
 */

FILE_DESCRIPTION(
/* description */ (''),
/* implementation_level */ '2;1');

FILE_NAME(
/* name */ 'Component1.step',
/* time_stamp */ '2026-06-08T16:51:09+08:00',
/* author */ (''),
/* organization */ (''),
/* preprocessor_version */ 'ST-DEVELOPER v20.1',
/* originating_system */ 'Autodesk Translation Framework v15.8.0.0',
/* authorisation */ '');

FILE_SCHEMA (('AUTOMOTIVE_DESIGN { 1 0 10303 214 3 1 1 }'));
ENDSEC;

DATA;
#10=MECHANICAL_DESIGN_GEOMETRIC_PRESENTATION_REPRESENTATION('',(#13),#1554);
#11=SHAPE_REPRESENTATION_RELATIONSHIP('SRR','None',#1561,#12);
#12=ADVANCED_BREP_SHAPE_REPRESENTATION('',(#14),#1553);
#13=STYLED_ITEM('',(#1571),#14);
#14=MANIFOLD_SOLID_BREP('Body1',#930);
#15=B_SPLINE_CURVE_WITH_KNOTS('',3,(#1346,#1347,#1348,#1349,#1350,#1351,
#1352,#1353,#1354,#1355,#1356,#1357,#1358,#1359),.UNSPECIFIED.,.F.,.F.,
(4,2,2,2,2,2,4),(-3.50810047520702,-3.23129660159416,-3.06066704680337,
-2.89003749201257,-2.71940793722178,-2.54877838243098,-2.27197450881813),
 .UNSPECIFIED.);
#16=B_SPLINE_CURVE_WITH_KNOTS('',3,(#1382,#1383,#1384,#1385,#1386,#1387,
#1388,#1389,#1390,#1391,#1392,#1393,#1394,#1395),.UNSPECIFIED.,.F.,.F.,
(4,2,2,2,2,2,4),(-3.50810047521321,-3.23129660159803,-3.06066704680711,
-2.89003749201619,-2.71940793722526,-2.54877838243434,-2.27197450881915),
 .UNSPECIFIED.);
#17=SPHERICAL_SURFACE('',#952,5.);
#18=SPHERICAL_SURFACE('',#958,5.);
#19=SPHERICAL_SURFACE('',#964,4.99999999999999);
#20=SPHERICAL_SURFACE('',#971,5.);
#21=FACE_BOUND('',#114,.T.);
#22=FACE_BOUND('',#129,.T.);
#23=FACE_BOUND('',#131,.T.);
#24=FACE_BOUND('',#136,.T.);
#25=FACE_BOUND('',#149,.T.);
#26=FACE_BOUND('',#150,.T.);
#27=FACE_BOUND('',#151,.T.);
#28=FACE_BOUND('',#157,.T.);
#29=PLANE('',#947);
#30=PLANE('',#948);
#31=PLANE('',#949);
#32=PLANE('',#950);
#33=PLANE('',#951);
#34=PLANE('',#980);
#35=PLANE('',#981);
#36=PLANE('',#982);
#37=PLANE('',#989);
#38=PLANE('',#990);
#39=PLANE('',#991);
#40=PLANE('',#992);
#41=PLANE('',#993);
#42=PLANE('',#994);
#43=PLANE('',#995);
#44=PLANE('',#996);
#45=PLANE('',#997);
#46=PLANE('',#998);
#47=PLANE('',#999);
#48=PLANE('',#1000);
#49=PLANE('',#1001);
#50=PLANE('',#1002);
#51=PLANE('',#1003);
#52=PLANE('',#1005);
#53=PLANE('',#1006);
#54=PLANE('',#1007);
#55=PLANE('',#1008);
#56=PLANE('',#1009);
#57=PLANE('',#1011);
#58=PLANE('',#1012);
#59=PLANE('',#1013);
#60=PLANE('',#1014);
#61=FACE_OUTER_BOUND('',#108,.T.);
#62=FACE_OUTER_BOUND('',#109,.T.);
#63=FACE_OUTER_BOUND('',#110,.T.);
#64=FACE_OUTER_BOUND('',#111,.T.);
#65=FACE_OUTER_BOUND('',#112,.T.);
#66=FACE_OUTER_BOUND('',#113,.T.);
#67=FACE_OUTER_BOUND('',#115,.T.);
#68=FACE_OUTER_BOUND('',#116,.T.);
#69=FACE_OUTER_BOUND('',#117,.T.);
#70=FACE_OUTER_BOUND('',#118,.T.);
#71=FACE_OUTER_BOUND('',#119,.T.);
#72=FACE_OUTER_BOUND('',#120,.T.);
#73=FACE_OUTER_BOUND('',#121,.T.);
#74=FACE_OUTER_BOUND('',#122,.T.);
#75=FACE_OUTER_BOUND('',#123,.T.);
#76=FACE_OUTER_BOUND('',#124,.T.);
#77=FACE_OUTER_BOUND('',#125,.T.);
#78=FACE_OUTER_BOUND('',#126,.T.);
#79=FACE_OUTER_BOUND('',#127,.T.);
#80=FACE_OUTER_BOUND('',#128,.T.);
#81=FACE_OUTER_BOUND('',#130,.T.);
#82=FACE_OUTER_BOUND('',#132,.T.);
#83=FACE_OUTER_BOUND('',#133,.T.);
#84=FACE_OUTER_BOUND('',#134,.T.);
#85=FACE_OUTER_BOUND('',#135,.T.);
#86=FACE_OUTER_BOUND('',#137,.T.);
#87=FACE_OUTER_BOUND('',#138,.T.);
#88=FACE_OUTER_BOUND('',#139,.T.);
#89=FACE_OUTER_BOUND('',#140,.T.);
#90=FACE_OUTER_BOUND('',#141,.T.);
#91=FACE_OUTER_BOUND('',#142,.T.);
#92=FACE_OUTER_BOUND('',#143,.T.);
#93=FACE_OUTER_BOUND('',#144,.T.);
#94=FACE_OUTER_BOUND('',#145,.T.);
#95=FACE_OUTER_BOUND('',#146,.T.);
#96=FACE_OUTER_BOUND('',#147,.T.);
#97=FACE_OUTER_BOUND('',#148,.T.);
#98=FACE_OUTER_BOUND('',#152,.T.);
#99=FACE_OUTER_BOUND('',#153,.T.);
#100=FACE_OUTER_BOUND('',#154,.T.);
#101=FACE_OUTER_BOUND('',#155,.T.);
#102=FACE_OUTER_BOUND('',#156,.T.);
#103=FACE_OUTER_BOUND('',#158,.T.);
#104=FACE_OUTER_BOUND('',#159,.T.);
#105=FACE_OUTER_BOUND('',#160,.T.);
#106=FACE_OUTER_BOUND('',#161,.T.);
#107=FACE_OUTER_BOUND('',#162,.T.);
#108=EDGE_LOOP('',(#610,#611,#612,#613));
#109=EDGE_LOOP('',(#614,#615,#616,#617));
#110=EDGE_LOOP('',(#618,#619,#620,#621));
#111=EDGE_LOOP('',(#622,#623,#624,#625));
#112=EDGE_LOOP('',(#626,#627,#628,#629));
#113=EDGE_LOOP('',(#630,#631,#632,#633));
#114=EDGE_LOOP('',(#634,#635,#636,#637));
#115=EDGE_LOOP('',(#638,#639,#640));
#116=EDGE_LOOP('',(#641,#642,#643,#644));
#117=EDGE_LOOP('',(#645,#646,#647));
#118=EDGE_LOOP('',(#648,#649,#650,#651));
#119=EDGE_LOOP('',(#652,#653,#654));
#120=EDGE_LOOP('',(#655,#656,#657,#658));
#121=EDGE_LOOP('',(#659,#660,#661,#662,#663,#664));
#122=EDGE_LOOP('',(#665,#666,#667));
#123=EDGE_LOOP('',(#668,#669,#670,#671));
#124=EDGE_LOOP('',(#672,#673,#674,#675));
#125=EDGE_LOOP('',(#676,#677,#678,#679,#680,#681));
#126=EDGE_LOOP('',(#682,#683,#684,#685));
#127=EDGE_LOOP('',(#686,#687,#688,#689,#690,#691,#692,#693));
#128=EDGE_LOOP('',(#694,#695,#696,#697));
#129=EDGE_LOOP('',(#698,#699,#700,#701,#702,#703,#704,#705));
#130=EDGE_LOOP('',(#706,#707,#708,#709,#710,#711,#712,#713,#714,#715));
#131=EDGE_LOOP('',(#716,#717,#718,#719));
#132=EDGE_LOOP('',(#720,#721,#722,#723,#724,#725));
#133=EDGE_LOOP('',(#726,#727,#728,#729));
#134=EDGE_LOOP('',(#730,#731,#732,#733,#734,#735,#736,#737,#738,#739,#740,
#741,#742,#743,#744,#745));
#135=EDGE_LOOP('',(#746,#747,#748,#749));
#136=EDGE_LOOP('',(#750,#751,#752,#753));
#137=EDGE_LOOP('',(#754,#755,#756,#757));
#138=EDGE_LOOP('',(#758,#759,#760,#761));
#139=EDGE_LOOP('',(#762,#763,#764,#765));
#140=EDGE_LOOP('',(#766,#767,#768,#769));
#141=EDGE_LOOP('',(#770,#771,#772,#773));
#142=EDGE_LOOP('',(#774,#775,#776,#777));
#143=EDGE_LOOP('',(#778,#779,#780,#781,#782,#783,#784,#785,#786,#787,#788,
#789));
#144=EDGE_LOOP('',(#790,#791,#792,#793));
#145=EDGE_LOOP('',(#794,#795,#796,#797));
#146=EDGE_LOOP('',(#798,#799,#800,#801));
#147=EDGE_LOOP('',(#802,#803,#804,#805,#806));
#148=EDGE_LOOP('',(#807,#808,#809,#810,#811,#812,#813,#814,#815,#816,#817,
#818));
#149=EDGE_LOOP('',(#819));
#150=EDGE_LOOP('',(#820));
#151=EDGE_LOOP('',(#821));
#152=EDGE_LOOP('',(#822,#823,#824,#825,#826));
#153=EDGE_LOOP('',(#827,#828,#829,#830,#831));
#154=EDGE_LOOP('',(#832,#833,#834,#835,#836));
#155=EDGE_LOOP('',(#837,#838,#839,#840,#841,#842,#843,#844));
#156=EDGE_LOOP('',(#845,#846,#847,#848));
#157=EDGE_LOOP('',(#849));
#158=EDGE_LOOP('',(#850,#851,#852,#853,#854,#855));
#159=EDGE_LOOP('',(#856,#857,#858,#859));
#160=EDGE_LOOP('',(#860,#861,#862,#863));
#161=EDGE_LOOP('',(#864,#865,#866,#867));
#162=EDGE_LOOP('',(#868,#869,#870,#871));
#163=LINE('',#1269,#268);
#164=LINE('',#1274,#269);
#165=LINE('',#1276,#270);
#166=LINE('',#1278,#271);
#167=LINE('',#1279,#272);
#168=LINE('',#1282,#273);
#169=LINE('',#1284,#274);
#170=LINE('',#1285,#275);
#171=LINE('',#1288,#276);
#172=LINE('',#1290,#277);
#173=LINE('',#1291,#278);
#174=LINE('',#1293,#279);
#175=LINE('',#1294,#280);
#176=LINE('',#1298,#281);
#177=LINE('',#1300,#282);
#178=LINE('',#1302,#283);
#179=LINE('',#1303,#284);
#180=LINE('',#1315,#285);
#181=LINE('',#1316,#286);
#182=LINE('',#1328,#287);
#183=LINE('',#1329,#288);
#184=LINE('',#1341,#289);
#185=LINE('',#1342,#290);
#186=LINE('',#1360,#291);
#187=LINE('',#1361,#292);
#188=LINE('',#1362,#293);
#189=LINE('',#1374,#294);
#190=LINE('',#1375,#295);
#191=LINE('',#1377,#296);
#192=LINE('',#1378,#297);
#193=LINE('',#1396,#298);
#194=LINE('',#1397,#299);
#195=LINE('',#1398,#300);
#196=LINE('',#1400,#301);
#197=LINE('',#1401,#302);
#198=LINE('',#1404,#303);
#199=LINE('',#1406,#304);
#200=LINE('',#1408,#305);
#201=LINE('',#1410,#306);
#202=LINE('',#1411,#307);
#203=LINE('',#1413,#308);
#204=LINE('',#1416,#309);
#205=LINE('',#1418,#310);
#206=LINE('',#1420,#311);
#207=LINE('',#1422,#312);
#208=LINE('',#1424,#313);
#209=LINE('',#1426,#314);
#210=LINE('',#1428,#315);
#211=LINE('',#1429,#316);
#212=LINE('',#1439,#317);
#213=LINE('',#1441,#318);
#214=LINE('',#1443,#319);
#215=LINE('',#1444,#320);
#216=LINE('',#1448,#321);
#217=LINE('',#1452,#322);
#218=LINE('',#1454,#323);
#219=LINE('',#1456,#324);
#220=LINE('',#1457,#325);
#221=LINE('',#1460,#326);
#222=LINE('',#1462,#327);
#223=LINE('',#1463,#328);
#224=LINE('',#1465,#329);
#225=LINE('',#1467,#330);
#226=LINE('',#1469,#331);
#227=LINE('',#1471,#332);
#228=LINE('',#1472,#333);
#229=LINE('',#1473,#334);
#230=LINE('',#1477,#335);
#231=LINE('',#1479,#336);
#232=LINE('',#1481,#337);
#233=LINE('',#1482,#338);
#234=LINE('',#1485,#339);
#235=LINE('',#1487,#340);
#236=LINE('',#1488,#341);
#237=LINE('',#1491,#342);
#238=LINE('',#1493,#343);
#239=LINE('',#1494,#344);
#240=LINE('',#1496,#345);
#241=LINE('',#1497,#346);
#242=LINE('',#1500,#347);
#243=LINE('',#1502,#348);
#244=LINE('',#1503,#349);
#245=LINE('',#1505,#350);
#246=LINE('',#1507,#351);
#247=LINE('',#1510,#352);
#248=LINE('',#1511,#353);
#249=LINE('',#1512,#354);
#250=LINE('',#1515,#355);
#251=LINE('',#1516,#356);
#252=LINE('',#1518,#357);
#253=LINE('',#1519,#358);
#254=LINE('',#1521,#359);
#255=LINE('',#1522,#360);
#256=LINE('',#1524,#361);
#257=LINE('',#1527,#362);
#258=LINE('',#1529,#363);
#259=LINE('',#1530,#364);
#260=LINE('',#1531,#365);
#261=LINE('',#1535,#366);
#262=LINE('',#1538,#367);
#263=LINE('',#1542,#368);
#264=LINE('',#1544,#369);
#265=LINE('',#1545,#370);
#266=LINE('',#1547,#371);
#267=LINE('',#1549,#372);
#268=VECTOR('',#1021,18.5);
#269=VECTOR('',#1026,10.);
#270=VECTOR('',#1027,10.);
#271=VECTOR('',#1028,10.);
#272=VECTOR('',#1029,10.);
#273=VECTOR('',#1032,10.);
#274=VECTOR('',#1033,10.);
#275=VECTOR('',#1034,10.);
#276=VECTOR('',#1037,10.);
#277=VECTOR('',#1038,10.);
#278=VECTOR('',#1039,10.);
#279=VECTOR('',#1042,10.);
#280=VECTOR('',#1043,10.);
#281=VECTOR('',#1046,10.);
#282=VECTOR('',#1047,10.);
#283=VECTOR('',#1048,10.);
#284=VECTOR('',#1049,10.);
#285=VECTOR('',#1062,10.);
#286=VECTOR('',#1063,10.);
#287=VECTOR('',#1076,10.);
#288=VECTOR('',#1077,10.);
#289=VECTOR('',#1090,10.);
#290=VECTOR('',#1091,10.);
#291=VECTOR('',#1094,10.);
#292=VECTOR('',#1095,10.);
#293=VECTOR('',#1096,10.);
#294=VECTOR('',#1109,10.);
#295=VECTOR('',#1110,10.);
#296=VECTOR('',#1113,10.);
#297=VECTOR('',#1114,10.);
#298=VECTOR('',#1117,10.);
#299=VECTOR('',#1118,10.);
#300=VECTOR('',#1119,10.);
#301=VECTOR('',#1122,10.);
#302=VECTOR('',#1123,10.);
#303=VECTOR('',#1126,10.);
#304=VECTOR('',#1127,10.);
#305=VECTOR('',#1128,10.);
#306=VECTOR('',#1129,10.);
#307=VECTOR('',#1130,10.);
#308=VECTOR('',#1133,10.);
#309=VECTOR('',#1134,10.);
#310=VECTOR('',#1135,10.);
#311=VECTOR('',#1136,10.);
#312=VECTOR('',#1137,10.);
#313=VECTOR('',#1138,10.);
#314=VECTOR('',#1139,10.);
#315=VECTOR('',#1140,10.);
#316=VECTOR('',#1141,10.);
#317=VECTOR('',#1152,10.);
#318=VECTOR('',#1153,10.);
#319=VECTOR('',#1154,10.);
#320=VECTOR('',#1155,10.);
#321=VECTOR('',#1160,9.);
#322=VECTOR('',#1163,10.);
#323=VECTOR('',#1164,10.);
#324=VECTOR('',#1165,10.);
#325=VECTOR('',#1166,10.);
#326=VECTOR('',#1169,10.);
#327=VECTOR('',#1170,10.);
#328=VECTOR('',#1171,10.);
#329=VECTOR('',#1172,10.);
#330=VECTOR('',#1173,10.);
#331=VECTOR('',#1174,10.);
#332=VECTOR('',#1175,10.);
#333=VECTOR('',#1176,10.);
#334=VECTOR('',#1177,10.);
#335=VECTOR('',#1180,10.);
#336=VECTOR('',#1181,10.);
#337=VECTOR('',#1182,10.);
#338=VECTOR('',#1183,10.);
#339=VECTOR('',#1186,10.);
#340=VECTOR('',#1187,10.);
#341=VECTOR('',#1188,10.);
#342=VECTOR('',#1191,10.);
#343=VECTOR('',#1192,10.);
#344=VECTOR('',#1193,10.);
#345=VECTOR('',#1196,10.);
#346=VECTOR('',#1197,10.);
#347=VECTOR('',#1200,10.);
#348=VECTOR('',#1201,10.);
#349=VECTOR('',#1202,10.);
#350=VECTOR('',#1205,10.);
#351=VECTOR('',#1208,10.);
#352=VECTOR('',#1211,10.);
#353=VECTOR('',#1212,10.);
#354=VECTOR('',#1213,10.);
#355=VECTOR('',#1216,10.);
#356=VECTOR('',#1217,10.);
#357=VECTOR('',#1220,10.);
#358=VECTOR('',#1221,10.);
#359=VECTOR('',#1224,10.);
#360=VECTOR('',#1225,10.);
#361=VECTOR('',#1228,10.);
#362=VECTOR('',#1231,10.);
#363=VECTOR('',#1232,10.);
#364=VECTOR('',#1233,10.);
#365=VECTOR('',#1234,10.);
#366=VECTOR('',#1239,10.);
#367=VECTOR('',#1244,10.);
#368=VECTOR('',#1251,9.);
#369=VECTOR('',#1254,10.);
#370=VECTOR('',#1255,10.);
#371=VECTOR('',#1258,10.);
#372=VECTOR('',#1261,10.);
#373=CIRCLE('',#945,18.5);
#374=CIRCLE('',#946,18.5);
#375=CIRCLE('',#953,5.);
#376=CIRCLE('',#954,5.);
#377=CIRCLE('',#955,5.);
#378=CIRCLE('',#957,5.);
#379=CIRCLE('',#959,5.);
#380=CIRCLE('',#960,5.);
#381=CIRCLE('',#961,5.);
#382=CIRCLE('',#963,5.);
#383=CIRCLE('',#965,5.);
#384=CIRCLE('',#966,4.99999999999999);
#385=CIRCLE('',#967,5.);
#386=CIRCLE('',#969,5.);
#387=CIRCLE('',#972,5.);
#388=CIRCLE('',#973,5.);
#389=CIRCLE('',#974,5.);
#390=CIRCLE('',#976,5.);
#391=CIRCLE('',#983,9.);
#392=CIRCLE('',#984,9.);
#393=CIRCLE('',#985,9.);
#394=CIRCLE('',#986,9.);
#395=CIRCLE('',#988,9.);
#396=CIRCLE('',#1004,9.);
#397=VERTEX_POINT('',#1266);
#398=VERTEX_POINT('',#1268);
#399=VERTEX_POINT('',#1272);
#400=VERTEX_POINT('',#1273);
#401=VERTEX_POINT('',#1275);
#402=VERTEX_POINT('',#1277);
#403=VERTEX_POINT('',#1281);
#404=VERTEX_POINT('',#1283);
#405=VERTEX_POINT('',#1287);
#406=VERTEX_POINT('',#1289);
#407=VERTEX_POINT('',#1296);
#408=VERTEX_POINT('',#1297);
#409=VERTEX_POINT('',#1299);
#410=VERTEX_POINT('',#1301);
#411=VERTEX_POINT('',#1305);
#412=VERTEX_POINT('',#1306);
#413=VERTEX_POINT('',#1308);
#414=VERTEX_POINT('',#1312);
#415=VERTEX_POINT('',#1313);
#416=VERTEX_POINT('',#1318);
#417=VERTEX_POINT('',#1319);
#418=VERTEX_POINT('',#1321);
#419=VERTEX_POINT('',#1325);
#420=VERTEX_POINT('',#1326);
#421=VERTEX_POINT('',#1331);
#422=VERTEX_POINT('',#1332);
#423=VERTEX_POINT('',#1334);
#424=VERTEX_POINT('',#1338);
#425=VERTEX_POINT('',#1339);
#426=VERTEX_POINT('',#1344);
#427=VERTEX_POINT('',#1345);
#428=VERTEX_POINT('',#1364);
#429=VERTEX_POINT('',#1365);
#430=VERTEX_POINT('',#1367);
#431=VERTEX_POINT('',#1371);
#432=VERTEX_POINT('',#1372);
#433=VERTEX_POINT('',#1380);
#434=VERTEX_POINT('',#1381);
#435=VERTEX_POINT('',#1403);
#436=VERTEX_POINT('',#1405);
#437=VERTEX_POINT('',#1407);
#438=VERTEX_POINT('',#1409);
#439=VERTEX_POINT('',#1414);
#440=VERTEX_POINT('',#1415);
#441=VERTEX_POINT('',#1417);
#442=VERTEX_POINT('',#1419);
#443=VERTEX_POINT('',#1421);
#444=VERTEX_POINT('',#1423);
#445=VERTEX_POINT('',#1425);
#446=VERTEX_POINT('',#1427);
#447=VERTEX_POINT('',#1431);
#448=VERTEX_POINT('',#1434);
#449=VERTEX_POINT('',#1437);
#450=VERTEX_POINT('',#1438);
#451=VERTEX_POINT('',#1440);
#452=VERTEX_POINT('',#1442);
#453=VERTEX_POINT('',#1446);
#454=VERTEX_POINT('',#1450);
#455=VERTEX_POINT('',#1451);
#456=VERTEX_POINT('',#1453);
#457=VERTEX_POINT('',#1455);
#458=VERTEX_POINT('',#1459);
#459=VERTEX_POINT('',#1461);
#460=VERTEX_POINT('',#1464);
#461=VERTEX_POINT('',#1466);
#462=VERTEX_POINT('',#1468);
#463=VERTEX_POINT('',#1470);
#464=VERTEX_POINT('',#1475);
#465=VERTEX_POINT('',#1476);
#466=VERTEX_POINT('',#1478);
#467=VERTEX_POINT('',#1480);
#468=VERTEX_POINT('',#1484);
#469=VERTEX_POINT('',#1486);
#470=VERTEX_POINT('',#1490);
#471=VERTEX_POINT('',#1492);
#472=VERTEX_POINT('',#1499);
#473=VERTEX_POINT('',#1501);
#474=VERTEX_POINT('',#1509);
#475=VERTEX_POINT('',#1514);
#476=VERTEX_POINT('',#1526);
#477=VERTEX_POINT('',#1528);
#478=VERTEX_POINT('',#1532);
#479=EDGE_CURVE('',#397,#397,#373,.T.);
#480=EDGE_CURVE('',#397,#398,#163,.T.);
#481=EDGE_CURVE('',#398,#398,#374,.T.);
#482=EDGE_CURVE('',#399,#400,#164,.T.);
#483=EDGE_CURVE('',#399,#401,#165,.T.);
#484=EDGE_CURVE('',#401,#402,#166,.T.);
#485=EDGE_CURVE('',#400,#402,#167,.T.);
#486=EDGE_CURVE('',#400,#403,#168,.T.);
#487=EDGE_CURVE('',#402,#404,#169,.T.);
#488=EDGE_CURVE('',#403,#404,#170,.T.);
#489=EDGE_CURVE('',#403,#405,#171,.T.);
#490=EDGE_CURVE('',#404,#406,#172,.T.);
#491=EDGE_CURVE('',#405,#406,#173,.T.);
#492=EDGE_CURVE('',#405,#399,#174,.T.);
#493=EDGE_CURVE('',#406,#401,#175,.T.);
#494=EDGE_CURVE('',#407,#408,#176,.T.);
#495=EDGE_CURVE('',#409,#407,#177,.T.);
#496=EDGE_CURVE('',#410,#409,#178,.T.);
#497=EDGE_CURVE('',#408,#410,#179,.T.);
#498=EDGE_CURVE('',#411,#412,#375,.F.);
#499=EDGE_CURVE('',#413,#411,#376,.F.);
#500=EDGE_CURVE('',#412,#413,#377,.F.);
#501=EDGE_CURVE('',#414,#415,#378,.T.);
#502=EDGE_CURVE('',#415,#413,#180,.T.);
#503=EDGE_CURVE('',#411,#414,#181,.T.);
#504=EDGE_CURVE('',#416,#417,#379,.F.);
#505=EDGE_CURVE('',#418,#416,#380,.F.);
#506=EDGE_CURVE('',#417,#418,#381,.F.);
#507=EDGE_CURVE('',#419,#420,#382,.T.);
#508=EDGE_CURVE('',#420,#418,#182,.T.);
#509=EDGE_CURVE('',#416,#419,#183,.T.);
#510=EDGE_CURVE('',#421,#422,#383,.F.);
#511=EDGE_CURVE('',#423,#421,#384,.F.);
#512=EDGE_CURVE('',#422,#423,#385,.F.);
#513=EDGE_CURVE('',#424,#425,#386,.T.);
#514=EDGE_CURVE('',#425,#423,#184,.T.);
#515=EDGE_CURVE('',#421,#424,#185,.T.);
#516=EDGE_CURVE('',#426,#427,#15,.T.);
#517=EDGE_CURVE('',#427,#422,#186,.T.);
#518=EDGE_CURVE('',#423,#411,#187,.T.);
#519=EDGE_CURVE('',#412,#426,#188,.T.);
#520=EDGE_CURVE('',#428,#429,#387,.F.);
#521=EDGE_CURVE('',#430,#428,#388,.F.);
#522=EDGE_CURVE('',#429,#430,#389,.F.);
#523=EDGE_CURVE('',#431,#432,#390,.T.);
#524=EDGE_CURVE('',#432,#430,#189,.T.);
#525=EDGE_CURVE('',#428,#431,#190,.T.);
#526=EDGE_CURVE('',#422,#429,#191,.T.);
#527=EDGE_CURVE('',#430,#421,#192,.T.);
#528=EDGE_CURVE('',#433,#434,#16,.T.);
#529=EDGE_CURVE('',#434,#417,#193,.T.);
#530=EDGE_CURVE('',#418,#428,#194,.T.);
#531=EDGE_CURVE('',#429,#433,#195,.T.);
#532=EDGE_CURVE('',#417,#412,#196,.T.);
#533=EDGE_CURVE('',#413,#416,#197,.T.);
#534=EDGE_CURVE('',#435,#425,#198,.T.);
#535=EDGE_CURVE('',#436,#435,#199,.T.);
#536=EDGE_CURVE('',#437,#436,#200,.T.);
#537=EDGE_CURVE('',#437,#438,#201,.T.);
#538=EDGE_CURVE('',#414,#438,#202,.T.);
#539=EDGE_CURVE('',#424,#432,#203,.T.);
#540=EDGE_CURVE('',#439,#440,#204,.T.);
#541=EDGE_CURVE('',#441,#439,#205,.T.);
#542=EDGE_CURVE('',#441,#442,#206,.T.);
#543=EDGE_CURVE('',#442,#443,#207,.T.);
#544=EDGE_CURVE('',#443,#444,#208,.T.);
#545=EDGE_CURVE('',#444,#445,#209,.T.);
#546=EDGE_CURVE('',#445,#446,#210,.T.);
#547=EDGE_CURVE('',#446,#440,#211,.T.);
#548=EDGE_CURVE('',#434,#447,#391,.T.);
#549=EDGE_CURVE('',#447,#433,#392,.T.);
#550=EDGE_CURVE('',#427,#448,#393,.T.);
#551=EDGE_CURVE('',#448,#426,#394,.T.);
#552=EDGE_CURVE('',#449,#450,#212,.T.);
#553=EDGE_CURVE('',#450,#451,#213,.T.);
#554=EDGE_CURVE('',#451,#452,#214,.T.);
#555=EDGE_CURVE('',#452,#449,#215,.T.);
#556=EDGE_CURVE('',#453,#453,#395,.T.);
#557=EDGE_CURVE('',#453,#447,#216,.T.);
#558=EDGE_CURVE('',#454,#455,#217,.T.);
#559=EDGE_CURVE('',#456,#454,#218,.T.);
#560=EDGE_CURVE('',#457,#456,#219,.T.);
#561=EDGE_CURVE('',#455,#457,#220,.T.);
#562=EDGE_CURVE('',#438,#458,#221,.T.);
#563=EDGE_CURVE('',#459,#458,#222,.T.);
#564=EDGE_CURVE('',#459,#435,#223,.T.);
#565=EDGE_CURVE('',#431,#460,#224,.T.);
#566=EDGE_CURVE('',#460,#461,#225,.T.);
#567=EDGE_CURVE('',#462,#461,#226,.T.);
#568=EDGE_CURVE('',#462,#463,#227,.T.);
#569=EDGE_CURVE('',#463,#420,#228,.T.);
#570=EDGE_CURVE('',#419,#415,#229,.T.);
#571=EDGE_CURVE('',#464,#465,#230,.T.);
#572=EDGE_CURVE('',#466,#465,#231,.T.);
#573=EDGE_CURVE('',#467,#466,#232,.T.);
#574=EDGE_CURVE('',#467,#464,#233,.T.);
#575=EDGE_CURVE('',#465,#468,#234,.T.);
#576=EDGE_CURVE('',#469,#468,#235,.T.);
#577=EDGE_CURVE('',#466,#469,#236,.T.);
#578=EDGE_CURVE('',#440,#470,#237,.T.);
#579=EDGE_CURVE('',#471,#470,#238,.T.);
#580=EDGE_CURVE('',#439,#471,#239,.T.);
#581=EDGE_CURVE('',#444,#456,#240,.T.);
#582=EDGE_CURVE('',#443,#457,#241,.T.);
#583=EDGE_CURVE('',#472,#442,#242,.T.);
#584=EDGE_CURVE('',#473,#441,#243,.T.);
#585=EDGE_CURVE('',#473,#472,#244,.T.);
#586=EDGE_CURVE('',#454,#445,#245,.T.);
#587=EDGE_CURVE('',#455,#446,#246,.T.);
#588=EDGE_CURVE('',#474,#464,#247,.T.);
#589=EDGE_CURVE('',#474,#470,#248,.T.);
#590=EDGE_CURVE('',#472,#468,#249,.T.);
#591=EDGE_CURVE('',#475,#467,#250,.T.);
#592=EDGE_CURVE('',#475,#474,#251,.T.);
#593=EDGE_CURVE('',#472,#459,#252,.T.);
#594=EDGE_CURVE('',#468,#458,#253,.T.);
#595=EDGE_CURVE('',#470,#461,#254,.T.);
#596=EDGE_CURVE('',#474,#462,#255,.T.);
#597=EDGE_CURVE('',#436,#473,#256,.T.);
#598=EDGE_CURVE('',#471,#476,#257,.T.);
#599=EDGE_CURVE('',#476,#477,#258,.T.);
#600=EDGE_CURVE('',#477,#475,#259,.T.);
#601=EDGE_CURVE('',#469,#437,#260,.T.);
#602=EDGE_CURVE('',#478,#478,#396,.T.);
#603=EDGE_CURVE('',#476,#460,#261,.T.);
#604=EDGE_CURVE('',#477,#463,#262,.T.);
#605=EDGE_CURVE('',#478,#448,#263,.T.);
#606=EDGE_CURVE('',#410,#449,#264,.T.);
#607=EDGE_CURVE('',#452,#408,#265,.T.);
#608=EDGE_CURVE('',#451,#407,#266,.T.);
#609=EDGE_CURVE('',#450,#409,#267,.T.);
#610=ORIENTED_EDGE('',*,*,#479,.F.);
#611=ORIENTED_EDGE('',*,*,#480,.T.);
#612=ORIENTED_EDGE('',*,*,#481,.F.);
#613=ORIENTED_EDGE('',*,*,#480,.F.);
#614=ORIENTED_EDGE('',*,*,#482,.F.);
#615=ORIENTED_EDGE('',*,*,#483,.T.);
#616=ORIENTED_EDGE('',*,*,#484,.T.);
#617=ORIENTED_EDGE('',*,*,#485,.F.);
#618=ORIENTED_EDGE('',*,*,#486,.F.);
#619=ORIENTED_EDGE('',*,*,#485,.T.);
#620=ORIENTED_EDGE('',*,*,#487,.T.);
#621=ORIENTED_EDGE('',*,*,#488,.F.);
#622=ORIENTED_EDGE('',*,*,#489,.F.);
#623=ORIENTED_EDGE('',*,*,#488,.T.);
#624=ORIENTED_EDGE('',*,*,#490,.T.);
#625=ORIENTED_EDGE('',*,*,#491,.F.);
#626=ORIENTED_EDGE('',*,*,#492,.F.);
#627=ORIENTED_EDGE('',*,*,#491,.T.);
#628=ORIENTED_EDGE('',*,*,#493,.T.);
#629=ORIENTED_EDGE('',*,*,#483,.F.);
#630=ORIENTED_EDGE('',*,*,#494,.F.);
#631=ORIENTED_EDGE('',*,*,#495,.F.);
#632=ORIENTED_EDGE('',*,*,#496,.F.);
#633=ORIENTED_EDGE('',*,*,#497,.F.);
#634=ORIENTED_EDGE('',*,*,#493,.F.);
#635=ORIENTED_EDGE('',*,*,#490,.F.);
#636=ORIENTED_EDGE('',*,*,#487,.F.);
#637=ORIENTED_EDGE('',*,*,#484,.F.);
#638=ORIENTED_EDGE('',*,*,#498,.F.);
#639=ORIENTED_EDGE('',*,*,#499,.F.);
#640=ORIENTED_EDGE('',*,*,#500,.F.);
#641=ORIENTED_EDGE('',*,*,#501,.T.);
#642=ORIENTED_EDGE('',*,*,#502,.T.);
#643=ORIENTED_EDGE('',*,*,#499,.T.);
#644=ORIENTED_EDGE('',*,*,#503,.T.);
#645=ORIENTED_EDGE('',*,*,#504,.F.);
#646=ORIENTED_EDGE('',*,*,#505,.F.);
#647=ORIENTED_EDGE('',*,*,#506,.F.);
#648=ORIENTED_EDGE('',*,*,#507,.T.);
#649=ORIENTED_EDGE('',*,*,#508,.T.);
#650=ORIENTED_EDGE('',*,*,#505,.T.);
#651=ORIENTED_EDGE('',*,*,#509,.T.);
#652=ORIENTED_EDGE('',*,*,#510,.F.);
#653=ORIENTED_EDGE('',*,*,#511,.F.);
#654=ORIENTED_EDGE('',*,*,#512,.F.);
#655=ORIENTED_EDGE('',*,*,#513,.T.);
#656=ORIENTED_EDGE('',*,*,#514,.T.);
#657=ORIENTED_EDGE('',*,*,#511,.T.);
#658=ORIENTED_EDGE('',*,*,#515,.T.);
#659=ORIENTED_EDGE('',*,*,#516,.T.);
#660=ORIENTED_EDGE('',*,*,#517,.T.);
#661=ORIENTED_EDGE('',*,*,#512,.T.);
#662=ORIENTED_EDGE('',*,*,#518,.T.);
#663=ORIENTED_EDGE('',*,*,#498,.T.);
#664=ORIENTED_EDGE('',*,*,#519,.T.);
#665=ORIENTED_EDGE('',*,*,#520,.F.);
#666=ORIENTED_EDGE('',*,*,#521,.F.);
#667=ORIENTED_EDGE('',*,*,#522,.F.);
#668=ORIENTED_EDGE('',*,*,#523,.T.);
#669=ORIENTED_EDGE('',*,*,#524,.T.);
#670=ORIENTED_EDGE('',*,*,#521,.T.);
#671=ORIENTED_EDGE('',*,*,#525,.T.);
#672=ORIENTED_EDGE('',*,*,#510,.T.);
#673=ORIENTED_EDGE('',*,*,#526,.T.);
#674=ORIENTED_EDGE('',*,*,#522,.T.);
#675=ORIENTED_EDGE('',*,*,#527,.T.);
#676=ORIENTED_EDGE('',*,*,#528,.T.);
#677=ORIENTED_EDGE('',*,*,#529,.T.);
#678=ORIENTED_EDGE('',*,*,#506,.T.);
#679=ORIENTED_EDGE('',*,*,#530,.T.);
#680=ORIENTED_EDGE('',*,*,#520,.T.);
#681=ORIENTED_EDGE('',*,*,#531,.T.);
#682=ORIENTED_EDGE('',*,*,#504,.T.);
#683=ORIENTED_EDGE('',*,*,#532,.T.);
#684=ORIENTED_EDGE('',*,*,#500,.T.);
#685=ORIENTED_EDGE('',*,*,#533,.T.);
#686=ORIENTED_EDGE('',*,*,#503,.F.);
#687=ORIENTED_EDGE('',*,*,#518,.F.);
#688=ORIENTED_EDGE('',*,*,#514,.F.);
#689=ORIENTED_EDGE('',*,*,#534,.F.);
#690=ORIENTED_EDGE('',*,*,#535,.F.);
#691=ORIENTED_EDGE('',*,*,#536,.F.);
#692=ORIENTED_EDGE('',*,*,#537,.T.);
#693=ORIENTED_EDGE('',*,*,#538,.F.);
#694=ORIENTED_EDGE('',*,*,#515,.F.);
#695=ORIENTED_EDGE('',*,*,#527,.F.);
#696=ORIENTED_EDGE('',*,*,#524,.F.);
#697=ORIENTED_EDGE('',*,*,#539,.F.);
#698=ORIENTED_EDGE('',*,*,#540,.F.);
#699=ORIENTED_EDGE('',*,*,#541,.F.);
#700=ORIENTED_EDGE('',*,*,#542,.T.);
#701=ORIENTED_EDGE('',*,*,#543,.T.);
#702=ORIENTED_EDGE('',*,*,#544,.T.);
#703=ORIENTED_EDGE('',*,*,#545,.T.);
#704=ORIENTED_EDGE('',*,*,#546,.T.);
#705=ORIENTED_EDGE('',*,*,#547,.T.);
#706=ORIENTED_EDGE('',*,*,#519,.F.);
#707=ORIENTED_EDGE('',*,*,#532,.F.);
#708=ORIENTED_EDGE('',*,*,#529,.F.);
#709=ORIENTED_EDGE('',*,*,#548,.T.);
#710=ORIENTED_EDGE('',*,*,#549,.T.);
#711=ORIENTED_EDGE('',*,*,#531,.F.);
#712=ORIENTED_EDGE('',*,*,#526,.F.);
#713=ORIENTED_EDGE('',*,*,#517,.F.);
#714=ORIENTED_EDGE('',*,*,#550,.T.);
#715=ORIENTED_EDGE('',*,*,#551,.T.);
#716=ORIENTED_EDGE('',*,*,#552,.T.);
#717=ORIENTED_EDGE('',*,*,#553,.T.);
#718=ORIENTED_EDGE('',*,*,#554,.T.);
#719=ORIENTED_EDGE('',*,*,#555,.T.);
#720=ORIENTED_EDGE('',*,*,#556,.F.);
#721=ORIENTED_EDGE('',*,*,#557,.T.);
#722=ORIENTED_EDGE('',*,*,#548,.F.);
#723=ORIENTED_EDGE('',*,*,#528,.F.);
#724=ORIENTED_EDGE('',*,*,#549,.F.);
#725=ORIENTED_EDGE('',*,*,#557,.F.);
#726=ORIENTED_EDGE('',*,*,#558,.F.);
#727=ORIENTED_EDGE('',*,*,#559,.F.);
#728=ORIENTED_EDGE('',*,*,#560,.F.);
#729=ORIENTED_EDGE('',*,*,#561,.F.);
#730=ORIENTED_EDGE('',*,*,#501,.F.);
#731=ORIENTED_EDGE('',*,*,#538,.T.);
#732=ORIENTED_EDGE('',*,*,#562,.T.);
#733=ORIENTED_EDGE('',*,*,#563,.F.);
#734=ORIENTED_EDGE('',*,*,#564,.T.);
#735=ORIENTED_EDGE('',*,*,#534,.T.);
#736=ORIENTED_EDGE('',*,*,#513,.F.);
#737=ORIENTED_EDGE('',*,*,#539,.T.);
#738=ORIENTED_EDGE('',*,*,#523,.F.);
#739=ORIENTED_EDGE('',*,*,#565,.T.);
#740=ORIENTED_EDGE('',*,*,#566,.T.);
#741=ORIENTED_EDGE('',*,*,#567,.F.);
#742=ORIENTED_EDGE('',*,*,#568,.T.);
#743=ORIENTED_EDGE('',*,*,#569,.T.);
#744=ORIENTED_EDGE('',*,*,#507,.F.);
#745=ORIENTED_EDGE('',*,*,#570,.T.);
#746=ORIENTED_EDGE('',*,*,#502,.F.);
#747=ORIENTED_EDGE('',*,*,#570,.F.);
#748=ORIENTED_EDGE('',*,*,#509,.F.);
#749=ORIENTED_EDGE('',*,*,#533,.F.);
#750=ORIENTED_EDGE('',*,*,#571,.T.);
#751=ORIENTED_EDGE('',*,*,#572,.F.);
#752=ORIENTED_EDGE('',*,*,#573,.F.);
#753=ORIENTED_EDGE('',*,*,#574,.T.);
#754=ORIENTED_EDGE('',*,*,#575,.T.);
#755=ORIENTED_EDGE('',*,*,#576,.F.);
#756=ORIENTED_EDGE('',*,*,#577,.F.);
#757=ORIENTED_EDGE('',*,*,#572,.T.);
#758=ORIENTED_EDGE('',*,*,#578,.T.);
#759=ORIENTED_EDGE('',*,*,#579,.F.);
#760=ORIENTED_EDGE('',*,*,#580,.F.);
#761=ORIENTED_EDGE('',*,*,#540,.T.);
#762=ORIENTED_EDGE('',*,*,#560,.T.);
#763=ORIENTED_EDGE('',*,*,#581,.F.);
#764=ORIENTED_EDGE('',*,*,#544,.F.);
#765=ORIENTED_EDGE('',*,*,#582,.T.);
#766=ORIENTED_EDGE('',*,*,#583,.T.);
#767=ORIENTED_EDGE('',*,*,#542,.F.);
#768=ORIENTED_EDGE('',*,*,#584,.F.);
#769=ORIENTED_EDGE('',*,*,#585,.T.);
#770=ORIENTED_EDGE('',*,*,#559,.T.);
#771=ORIENTED_EDGE('',*,*,#586,.T.);
#772=ORIENTED_EDGE('',*,*,#545,.F.);
#773=ORIENTED_EDGE('',*,*,#581,.T.);
#774=ORIENTED_EDGE('',*,*,#558,.T.);
#775=ORIENTED_EDGE('',*,*,#587,.T.);
#776=ORIENTED_EDGE('',*,*,#546,.F.);
#777=ORIENTED_EDGE('',*,*,#586,.F.);
#778=ORIENTED_EDGE('',*,*,#588,.F.);
#779=ORIENTED_EDGE('',*,*,#589,.T.);
#780=ORIENTED_EDGE('',*,*,#578,.F.);
#781=ORIENTED_EDGE('',*,*,#547,.F.);
#782=ORIENTED_EDGE('',*,*,#587,.F.);
#783=ORIENTED_EDGE('',*,*,#561,.T.);
#784=ORIENTED_EDGE('',*,*,#582,.F.);
#785=ORIENTED_EDGE('',*,*,#543,.F.);
#786=ORIENTED_EDGE('',*,*,#583,.F.);
#787=ORIENTED_EDGE('',*,*,#590,.T.);
#788=ORIENTED_EDGE('',*,*,#575,.F.);
#789=ORIENTED_EDGE('',*,*,#571,.F.);
#790=ORIENTED_EDGE('',*,*,#588,.T.);
#791=ORIENTED_EDGE('',*,*,#574,.F.);
#792=ORIENTED_EDGE('',*,*,#591,.F.);
#793=ORIENTED_EDGE('',*,*,#592,.T.);
#794=ORIENTED_EDGE('',*,*,#593,.T.);
#795=ORIENTED_EDGE('',*,*,#563,.T.);
#796=ORIENTED_EDGE('',*,*,#594,.F.);
#797=ORIENTED_EDGE('',*,*,#590,.F.);
#798=ORIENTED_EDGE('',*,*,#595,.F.);
#799=ORIENTED_EDGE('',*,*,#589,.F.);
#800=ORIENTED_EDGE('',*,*,#596,.T.);
#801=ORIENTED_EDGE('',*,*,#567,.T.);
#802=ORIENTED_EDGE('',*,*,#597,.F.);
#803=ORIENTED_EDGE('',*,*,#535,.T.);
#804=ORIENTED_EDGE('',*,*,#564,.F.);
#805=ORIENTED_EDGE('',*,*,#593,.F.);
#806=ORIENTED_EDGE('',*,*,#585,.F.);
#807=ORIENTED_EDGE('',*,*,#597,.T.);
#808=ORIENTED_EDGE('',*,*,#584,.T.);
#809=ORIENTED_EDGE('',*,*,#541,.T.);
#810=ORIENTED_EDGE('',*,*,#580,.T.);
#811=ORIENTED_EDGE('',*,*,#598,.T.);
#812=ORIENTED_EDGE('',*,*,#599,.T.);
#813=ORIENTED_EDGE('',*,*,#600,.T.);
#814=ORIENTED_EDGE('',*,*,#591,.T.);
#815=ORIENTED_EDGE('',*,*,#573,.T.);
#816=ORIENTED_EDGE('',*,*,#577,.T.);
#817=ORIENTED_EDGE('',*,*,#601,.T.);
#818=ORIENTED_EDGE('',*,*,#536,.T.);
#819=ORIENTED_EDGE('',*,*,#481,.T.);
#820=ORIENTED_EDGE('',*,*,#602,.T.);
#821=ORIENTED_EDGE('',*,*,#556,.T.);
#822=ORIENTED_EDGE('',*,*,#598,.F.);
#823=ORIENTED_EDGE('',*,*,#579,.T.);
#824=ORIENTED_EDGE('',*,*,#595,.T.);
#825=ORIENTED_EDGE('',*,*,#566,.F.);
#826=ORIENTED_EDGE('',*,*,#603,.F.);
#827=ORIENTED_EDGE('',*,*,#601,.F.);
#828=ORIENTED_EDGE('',*,*,#576,.T.);
#829=ORIENTED_EDGE('',*,*,#594,.T.);
#830=ORIENTED_EDGE('',*,*,#562,.F.);
#831=ORIENTED_EDGE('',*,*,#537,.F.);
#832=ORIENTED_EDGE('',*,*,#600,.F.);
#833=ORIENTED_EDGE('',*,*,#604,.T.);
#834=ORIENTED_EDGE('',*,*,#568,.F.);
#835=ORIENTED_EDGE('',*,*,#596,.F.);
#836=ORIENTED_EDGE('',*,*,#592,.F.);
#837=ORIENTED_EDGE('',*,*,#508,.F.);
#838=ORIENTED_EDGE('',*,*,#569,.F.);
#839=ORIENTED_EDGE('',*,*,#604,.F.);
#840=ORIENTED_EDGE('',*,*,#599,.F.);
#841=ORIENTED_EDGE('',*,*,#603,.T.);
#842=ORIENTED_EDGE('',*,*,#565,.F.);
#843=ORIENTED_EDGE('',*,*,#525,.F.);
#844=ORIENTED_EDGE('',*,*,#530,.F.);
#845=ORIENTED_EDGE('',*,*,#489,.T.);
#846=ORIENTED_EDGE('',*,*,#492,.T.);
#847=ORIENTED_EDGE('',*,*,#482,.T.);
#848=ORIENTED_EDGE('',*,*,#486,.T.);
#849=ORIENTED_EDGE('',*,*,#479,.T.);
#850=ORIENTED_EDGE('',*,*,#602,.F.);
#851=ORIENTED_EDGE('',*,*,#605,.T.);
#852=ORIENTED_EDGE('',*,*,#550,.F.);
#853=ORIENTED_EDGE('',*,*,#516,.F.);
#854=ORIENTED_EDGE('',*,*,#551,.F.);
#855=ORIENTED_EDGE('',*,*,#605,.F.);
#856=ORIENTED_EDGE('',*,*,#606,.T.);
#857=ORIENTED_EDGE('',*,*,#555,.F.);
#858=ORIENTED_EDGE('',*,*,#607,.T.);
#859=ORIENTED_EDGE('',*,*,#497,.T.);
#860=ORIENTED_EDGE('',*,*,#607,.F.);
#861=ORIENTED_EDGE('',*,*,#554,.F.);
#862=ORIENTED_EDGE('',*,*,#608,.T.);
#863=ORIENTED_EDGE('',*,*,#494,.T.);
#864=ORIENTED_EDGE('',*,*,#608,.F.);
#865=ORIENTED_EDGE('',*,*,#553,.F.);
#866=ORIENTED_EDGE('',*,*,#609,.T.);
#867=ORIENTED_EDGE('',*,*,#495,.T.);
#868=ORIENTED_EDGE('',*,*,#609,.F.);
#869=ORIENTED_EDGE('',*,*,#552,.F.);
#870=ORIENTED_EDGE('',*,*,#606,.F.);
#871=ORIENTED_EDGE('',*,*,#496,.T.);
#872=CYLINDRICAL_SURFACE('',#944,18.5);
#873=CYLINDRICAL_SURFACE('',#956,5.);
#874=CYLINDRICAL_SURFACE('',#962,5.);
#875=CYLINDRICAL_SURFACE('',#968,5.);
#876=CYLINDRICAL_SURFACE('',#970,5.);
#877=CYLINDRICAL_SURFACE('',#975,5.);
#878=CYLINDRICAL_SURFACE('',#977,5.);
#879=CYLINDRICAL_SURFACE('',#978,5.);
#880=CYLINDRICAL_SURFACE('',#979,5.);
#881=CYLINDRICAL_SURFACE('',#987,9.);
#882=CYLINDRICAL_SURFACE('',#1010,9.);
#883=ADVANCED_FACE('',(#61),#872,.F.);
#884=ADVANCED_FACE('',(#62),#29,.F.);
#885=ADVANCED_FACE('',(#63),#30,.F.);
#886=ADVANCED_FACE('',(#64),#31,.F.);
#887=ADVANCED_FACE('',(#65),#32,.F.);
#888=ADVANCED_FACE('',(#66,#21),#33,.F.);
#889=ADVANCED_FACE('',(#67),#17,.T.);
#890=ADVANCED_FACE('',(#68),#873,.T.);
#891=ADVANCED_FACE('',(#69),#18,.T.);
#892=ADVANCED_FACE('',(#70),#874,.T.);
#893=ADVANCED_FACE('',(#71),#19,.T.);
#894=ADVANCED_FACE('',(#72),#875,.T.);
#895=ADVANCED_FACE('',(#73),#876,.T.);
#896=ADVANCED_FACE('',(#74),#20,.T.);
#897=ADVANCED_FACE('',(#75),#877,.T.);
#898=ADVANCED_FACE('',(#76),#878,.T.);
#899=ADVANCED_FACE('',(#77),#879,.T.);
#900=ADVANCED_FACE('',(#78),#880,.T.);
#901=ADVANCED_FACE('',(#79),#34,.T.);
#902=ADVANCED_FACE('',(#80,#22),#35,.T.);
#903=ADVANCED_FACE('',(#81,#23),#36,.F.);
#904=ADVANCED_FACE('',(#82),#881,.F.);
#905=ADVANCED_FACE('',(#83),#37,.T.);
#906=ADVANCED_FACE('',(#84),#38,.T.);
#907=ADVANCED_FACE('',(#85,#24),#39,.T.);
#908=ADVANCED_FACE('',(#86),#40,.T.);
#909=ADVANCED_FACE('',(#87),#41,.T.);
#910=ADVANCED_FACE('',(#88),#42,.T.);
#911=ADVANCED_FACE('',(#89),#43,.T.);
#912=ADVANCED_FACE('',(#90),#44,.T.);
#913=ADVANCED_FACE('',(#91),#45,.T.);
#914=ADVANCED_FACE('',(#92),#46,.T.);
#915=ADVANCED_FACE('',(#93),#47,.T.);
#916=ADVANCED_FACE('',(#94),#48,.T.);
#917=ADVANCED_FACE('',(#95),#49,.T.);
#918=ADVANCED_FACE('',(#96),#50,.T.);
#919=ADVANCED_FACE('',(#97,#25,#26,#27),#51,.T.);
#920=ADVANCED_FACE('',(#98),#52,.T.);
#921=ADVANCED_FACE('',(#99),#53,.T.);
#922=ADVANCED_FACE('',(#100),#54,.T.);
#923=ADVANCED_FACE('',(#101),#55,.T.);
#924=ADVANCED_FACE('',(#102,#28),#56,.F.);
#925=ADVANCED_FACE('',(#103),#882,.F.);
#926=ADVANCED_FACE('',(#104),#57,.T.);
#927=ADVANCED_FACE('',(#105),#58,.T.);
#928=ADVANCED_FACE('',(#106),#59,.T.);
#929=ADVANCED_FACE('',(#107),#60,.T.);
#930=CLOSED_SHELL('',(#883,#884,#885,#886,#887,#888,#889,#890,#891,#892,
#893,#894,#895,#896,#897,#898,#899,#900,#901,#902,#903,#904,#905,#906,#907,
#908,#909,#910,#911,#912,#913,#914,#915,#916,#917,#918,#919,#920,#921,#922,
#923,#924,#925,#926,#927,#928,#929));
#931=DERIVED_UNIT_ELEMENT(#933,1.);
#932=DERIVED_UNIT_ELEMENT(#1556,-3.);
#933=(
MASS_UNIT()
NAMED_UNIT(*)
SI_UNIT(.KILO.,.GRAM.)
);
#934=DERIVED_UNIT((#931,#932));
#935=MEASURE_REPRESENTATION_ITEM('density measure',
POSITIVE_RATIO_MEASURE(7850.),#934);
#936=PROPERTY_DEFINITION_REPRESENTATION(#941,#938);
#937=PROPERTY_DEFINITION_REPRESENTATION(#942,#939);
#938=REPRESENTATION('material name',(#940),#1553);
#939=REPRESENTATION('density',(#935),#1553);
#940=DESCRIPTIVE_REPRESENTATION_ITEM('Steel','Steel');
#941=PROPERTY_DEFINITION('material property','material name',#1563);
#942=PROPERTY_DEFINITION('material property','density of part',#1563);
#943=AXIS2_PLACEMENT_3D('',#1264,#1015,#1016);
#944=AXIS2_PLACEMENT_3D('',#1265,#1017,#1018);
#945=AXIS2_PLACEMENT_3D('',#1267,#1019,#1020);
#946=AXIS2_PLACEMENT_3D('',#1270,#1022,#1023);
#947=AXIS2_PLACEMENT_3D('',#1271,#1024,#1025);
#948=AXIS2_PLACEMENT_3D('',#1280,#1030,#1031);
#949=AXIS2_PLACEMENT_3D('',#1286,#1035,#1036);
#950=AXIS2_PLACEMENT_3D('',#1292,#1040,#1041);
#951=AXIS2_PLACEMENT_3D('',#1295,#1044,#1045);
#952=AXIS2_PLACEMENT_3D('',#1304,#1050,#1051);
#953=AXIS2_PLACEMENT_3D('',#1307,#1052,#1053);
#954=AXIS2_PLACEMENT_3D('',#1309,#1054,#1055);
#955=AXIS2_PLACEMENT_3D('',#1310,#1056,#1057);
#956=AXIS2_PLACEMENT_3D('',#1311,#1058,#1059);
#957=AXIS2_PLACEMENT_3D('',#1314,#1060,#1061);
#958=AXIS2_PLACEMENT_3D('',#1317,#1064,#1065);
#959=AXIS2_PLACEMENT_3D('',#1320,#1066,#1067);
#960=AXIS2_PLACEMENT_3D('',#1322,#1068,#1069);
#961=AXIS2_PLACEMENT_3D('',#1323,#1070,#1071);
#962=AXIS2_PLACEMENT_3D('',#1324,#1072,#1073);
#963=AXIS2_PLACEMENT_3D('',#1327,#1074,#1075);
#964=AXIS2_PLACEMENT_3D('',#1330,#1078,#1079);
#965=AXIS2_PLACEMENT_3D('',#1333,#1080,#1081);
#966=AXIS2_PLACEMENT_3D('',#1335,#1082,#1083);
#967=AXIS2_PLACEMENT_3D('',#1336,#1084,#1085);
#968=AXIS2_PLACEMENT_3D('',#1337,#1086,#1087);
#969=AXIS2_PLACEMENT_3D('',#1340,#1088,#1089);
#970=AXIS2_PLACEMENT_3D('',#1343,#1092,#1093);
#971=AXIS2_PLACEMENT_3D('',#1363,#1097,#1098);
#972=AXIS2_PLACEMENT_3D('',#1366,#1099,#1100);
#973=AXIS2_PLACEMENT_3D('',#1368,#1101,#1102);
#974=AXIS2_PLACEMENT_3D('',#1369,#1103,#1104);
#975=AXIS2_PLACEMENT_3D('',#1370,#1105,#1106);
#976=AXIS2_PLACEMENT_3D('',#1373,#1107,#1108);
#977=AXIS2_PLACEMENT_3D('',#1376,#1111,#1112);
#978=AXIS2_PLACEMENT_3D('',#1379,#1115,#1116);
#979=AXIS2_PLACEMENT_3D('',#1399,#1120,#1121);
#980=AXIS2_PLACEMENT_3D('',#1402,#1124,#1125);
#981=AXIS2_PLACEMENT_3D('',#1412,#1131,#1132);
#982=AXIS2_PLACEMENT_3D('',#1430,#1142,#1143);
#983=AXIS2_PLACEMENT_3D('',#1432,#1144,#1145);
#984=AXIS2_PLACEMENT_3D('',#1433,#1146,#1147);
#985=AXIS2_PLACEMENT_3D('',#1435,#1148,#1149);
#986=AXIS2_PLACEMENT_3D('',#1436,#1150,#1151);
#987=AXIS2_PLACEMENT_3D('',#1445,#1156,#1157);
#988=AXIS2_PLACEMENT_3D('',#1447,#1158,#1159);
#989=AXIS2_PLACEMENT_3D('',#1449,#1161,#1162);
#990=AXIS2_PLACEMENT_3D('',#1458,#1167,#1168);
#991=AXIS2_PLACEMENT_3D('',#1474,#1178,#1179);
#992=AXIS2_PLACEMENT_3D('',#1483,#1184,#1185);
#993=AXIS2_PLACEMENT_3D('',#1489,#1189,#1190);
#994=AXIS2_PLACEMENT_3D('',#1495,#1194,#1195);
#995=AXIS2_PLACEMENT_3D('',#1498,#1198,#1199);
#996=AXIS2_PLACEMENT_3D('',#1504,#1203,#1204);
#997=AXIS2_PLACEMENT_3D('',#1506,#1206,#1207);
#998=AXIS2_PLACEMENT_3D('',#1508,#1209,#1210);
#999=AXIS2_PLACEMENT_3D('',#1513,#1214,#1215);
#1000=AXIS2_PLACEMENT_3D('',#1517,#1218,#1219);
#1001=AXIS2_PLACEMENT_3D('',#1520,#1222,#1223);
#1002=AXIS2_PLACEMENT_3D('',#1523,#1226,#1227);
#1003=AXIS2_PLACEMENT_3D('',#1525,#1229,#1230);
#1004=AXIS2_PLACEMENT_3D('',#1533,#1235,#1236);
#1005=AXIS2_PLACEMENT_3D('',#1534,#1237,#1238);
#1006=AXIS2_PLACEMENT_3D('',#1536,#1240,#1241);
#1007=AXIS2_PLACEMENT_3D('',#1537,#1242,#1243);
#1008=AXIS2_PLACEMENT_3D('',#1539,#1245,#1246);
#1009=AXIS2_PLACEMENT_3D('',#1540,#1247,#1248);
#1010=AXIS2_PLACEMENT_3D('',#1541,#1249,#1250);
#1011=AXIS2_PLACEMENT_3D('',#1543,#1252,#1253);
#1012=AXIS2_PLACEMENT_3D('',#1546,#1256,#1257);
#1013=AXIS2_PLACEMENT_3D('',#1548,#1259,#1260);
#1014=AXIS2_PLACEMENT_3D('',#1550,#1262,#1263);
#1015=DIRECTION('axis',(0.,0.,1.));
#1016=DIRECTION('refdir',(1.,0.,0.));
#1017=DIRECTION('center_axis',(0.,0.,-1.));
#1018=DIRECTION('ref_axis',(-1.,0.,0.));
#1019=DIRECTION('center_axis',(0.,9.38138455808256E-15,-1.));
#1020=DIRECTION('ref_axis',(-1.,0.,0.));
#1021=DIRECTION('',(0.,0.,-1.));
#1022=DIRECTION('center_axis',(0.,-9.38138455808256E-15,1.));
#1023=DIRECTION('ref_axis',(-1.,0.,0.));
#1024=DIRECTION('center_axis',(1.,0.,0.));
#1025=DIRECTION('ref_axis',(0.,-1.,0.));
#1026=DIRECTION('',(0.,-1.,-9.38138455808256E-15));
#1027=DIRECTION('',(0.,0.,-1.));
#1028=DIRECTION('',(0.,-1.,0.));
#1029=DIRECTION('',(0.,0.,-1.));
#1030=DIRECTION('center_axis',(-1.66400333427032E-18,1.,0.));
#1031=DIRECTION('ref_axis',(1.,1.66400333427032E-18,0.));
#1032=DIRECTION('',(1.,1.66400333427032E-18,1.56106551847215E-32));
#1033=DIRECTION('',(1.,1.66400333427032E-18,0.));
#1034=DIRECTION('',(0.,0.,-1.));
#1035=DIRECTION('center_axis',(-1.,4.32640866910283E-17,0.));
#1036=DIRECTION('ref_axis',(4.32640866910283E-17,1.,0.));
#1037=DIRECTION('',(4.32640866910283E-17,1.,9.38138455808256E-15));
#1038=DIRECTION('',(4.32640866910283E-17,1.,0.));
#1039=DIRECTION('',(0.,0.,-1.));
#1040=DIRECTION('center_axis',(0.,-1.,0.));
#1041=DIRECTION('ref_axis',(-1.,0.,0.));
#1042=DIRECTION('',(-1.,0.,0.));
#1043=DIRECTION('',(-1.,0.,0.));
#1044=DIRECTION('center_axis',(0.,0.,-1.));
#1045=DIRECTION('ref_axis',(-1.,0.,0.));
#1046=DIRECTION('',(8.12516850574617E-19,-1.,0.));
#1047=DIRECTION('',(1.,0.,0.));
#1048=DIRECTION('',(0.,1.,0.));
#1049=DIRECTION('',(-1.,-1.62503370114923E-18,0.));
#1050=DIRECTION('center_axis',(-0.408248290463858,-0.816496580927729,0.408248290463861));
#1051=DIRECTION('ref_axis',(-0.577350269189627,0.577350269189621,0.57735026918963));
#1052=DIRECTION('center_axis',(-1.,-1.71084208819807E-29,1.77635683940025E-15));
#1053=DIRECTION('ref_axis',(-1.40129846432482E-44,1.,9.63118473862323E-15));
#1054=DIRECTION('center_axis',(0.,-9.54791801177635E-15,1.));
#1055=DIRECTION('ref_axis',(-1.,0.,0.));
#1056=DIRECTION('center_axis',(-1.77635683940025E-15,1.,8.88178419700125E-15));
#1057=DIRECTION('ref_axis',(0.,-8.88178419700125E-15,1.));
#1058=DIRECTION('center_axis',(0.,9.62193288008469E-15,-1.));
#1059=DIRECTION('ref_axis',(-0.707106781186549,0.707106781186546,6.80373398762968E-15));
#1060=DIRECTION('center_axis',(0.,-9.37521665239021E-15,1.));
#1061=DIRECTION('ref_axis',(-0.707106781186549,0.707106781186546,6.62927926999815E-15));
#1062=DIRECTION('',(0.,-9.62193288008469E-15,1.));
#1063=DIRECTION('',(0.,9.62193288008469E-15,-1.));
#1064=DIRECTION('center_axis',(-0.816496580927727,0.408248290463867,-0.408248290463858));
#1065=DIRECTION('ref_axis',(-0.577350269189624,-0.577350269189633,0.57735026918962));
#1066=DIRECTION('center_axis',(0.,-1.,-1.06581410364015E-14));
#1067=DIRECTION('ref_axis',(-1.,0.,0.));
#1068=DIRECTION('center_axis',(0.,-9.54791801177635E-15,1.));
#1069=DIRECTION('ref_axis',(0.,-1.,-9.54791801177635E-15));
#1070=DIRECTION('center_axis',(-1.,0.,0.));
#1071=DIRECTION('ref_axis',(0.,-9.32587340685131E-15,1.));
#1072=DIRECTION('center_axis',(0.,9.62193288008469E-15,-1.));
#1073=DIRECTION('ref_axis',(-0.707106781186548,-0.707106781186548,-6.80373398762969E-15));
#1074=DIRECTION('center_axis',(0.,-9.37521665239021E-15,1.));
#1075=DIRECTION('ref_axis',(-0.707106781186548,-0.707106781186548,-6.62927926999816E-15));
#1076=DIRECTION('',(0.,-9.62193288008469E-15,1.));
#1077=DIRECTION('',(0.,9.62193288008469E-15,-1.));
#1078=DIRECTION('center_axis',(0.408248290463858,-0.816496580927729,0.408248290463862));
#1079=DIRECTION('ref_axis',(0.577350269189625,0.577350269189622,0.577350269189631));
#1080=DIRECTION('center_axis',(0.,1.,8.88178419700125E-15));
#1081=DIRECTION('ref_axis',(1.,0.,0.));
#1082=DIRECTION('center_axis',(0.,-9.54791801177636E-15,1.));
#1083=DIRECTION('ref_axis',(-8.88178419700127E-16,1.,9.54791801177636E-15));
#1084=DIRECTION('center_axis',(1.,8.88178419700125E-16,7.88860905221012E-30));
#1085=DIRECTION('ref_axis',(-4.20389539297445E-45,-8.88178419700125E-15,
1.));
#1086=DIRECTION('center_axis',(0.,9.62193288008469E-15,-1.));
#1087=DIRECTION('ref_axis',(0.707106781186549,0.707106781186546,6.80373398762968E-15));
#1088=DIRECTION('center_axis',(0.,-9.37521665239021E-15,1.));
#1089=DIRECTION('ref_axis',(0.707106781186549,0.707106781186546,6.62927926999815E-15));
#1090=DIRECTION('',(0.,-9.62193288008469E-15,1.));
#1091=DIRECTION('',(0.,9.62193288008469E-15,-1.));
#1092=DIRECTION('center_axis',(-1.,-8.8817841970013E-16,-8.33234331139697E-30));
#1093=DIRECTION('ref_axis',(-6.28036983473513E-16,0.70710678118654,0.707106781186555));
#1094=DIRECTION('',(1.,8.8817841970013E-16,8.33234331139697E-30));
#1095=DIRECTION('',(-1.,-8.8817841970013E-16,-8.33234331139697E-30));
#1096=DIRECTION('',(1.,8.8817841970013E-16,8.33234331139697E-30));
#1097=DIRECTION('center_axis',(-0.816496580927725,-0.408248290463868,0.40824829046386));
#1098=DIRECTION('ref_axis',(0.577350269189627,-0.577350269189631,0.57735026918962));
#1099=DIRECTION('center_axis',(1.,0.,0.));
#1100=DIRECTION('ref_axis',(0.,-1.,-9.63118473862323E-15));
#1101=DIRECTION('center_axis',(0.,-9.54791801177635E-15,1.));
#1102=DIRECTION('ref_axis',(1.,0.,0.));
#1103=DIRECTION('center_axis',(4.44089209850063E-16,-1.,-9.32587340685131E-15));
#1104=DIRECTION('ref_axis',(0.,-9.32587340685131E-15,1.));
#1105=DIRECTION('center_axis',(0.,9.62193288008469E-15,-1.));
#1106=DIRECTION('ref_axis',(0.707106781186548,-0.707106781186547,-6.80373398762969E-15));
#1107=DIRECTION('center_axis',(0.,-9.37521665239021E-15,1.));
#1108=DIRECTION('ref_axis',(0.707106781186548,-0.707106781186547,-6.62927926999816E-15));
#1109=DIRECTION('',(0.,-9.62193288008469E-15,1.));
#1110=DIRECTION('',(0.,9.62193288008469E-15,-1.));
#1111=DIRECTION('center_axis',(0.,1.,9.38138455808256E-15));
#1112=DIRECTION('ref_axis',(0.707106781186548,-6.63364063793894E-15,0.707106781186548));
#1113=DIRECTION('',(0.,-1.,-9.38138455808256E-15));
#1114=DIRECTION('',(0.,1.,9.38138455808256E-15));
#1115=DIRECTION('center_axis',(1.,4.44089209850058E-16,4.16617165569842E-30));
#1116=DIRECTION('ref_axis',(3.14018491736752E-16,-0.707106781186554,0.707106781186541));
#1117=DIRECTION('',(-1.,-4.44089209850058E-16,-4.16617165569842E-30));
#1118=DIRECTION('',(1.,4.44089209850058E-16,4.16617165569842E-30));
#1119=DIRECTION('',(-1.,-4.44089209850058E-16,-4.16617165569842E-30));
#1120=DIRECTION('center_axis',(0.,-1.,-9.38138455808256E-15));
#1121=DIRECTION('ref_axis',(-0.707106781186548,-6.63364063793894E-15,0.707106781186548));
#1122=DIRECTION('',(0.,1.,9.38138455808256E-15));
#1123=DIRECTION('',(0.,-1.,-9.38138455808256E-15));
#1124=DIRECTION('center_axis',(-8.8817841970013E-16,1.,9.62193288008469E-15));
#1125=DIRECTION('ref_axis',(-1.,-8.88178419699917E-16,-2.21417841306201E-14));
#1126=DIRECTION('',(1.,8.88178419700333E-16,-2.21417841306201E-14));
#1127=DIRECTION('',(0.,9.37521665239021E-15,-1.));
#1128=DIRECTION('',(1.,8.88178419699917E-16,2.21417841306201E-14));
#1129=DIRECTION('',(0.,9.37521665239021E-15,-1.));
#1130=DIRECTION('',(1.,8.88178419699917E-16,2.21417841306201E-14));
#1131=DIRECTION('center_axis',(1.,0.,0.));
#1132=DIRECTION('ref_axis',(0.,1.,-1.27603995725376E-14));
#1133=DIRECTION('',(0.,-1.,1.27603995725376E-14));
#1134=DIRECTION('',(0.,9.37521665239021E-15,-1.));
#1135=DIRECTION('',(0.,-1.,1.27603995725376E-14));
#1136=DIRECTION('',(0.,9.37521665239021E-15,-1.));
#1137=DIRECTION('',(0.,-1.,0.));
#1138=DIRECTION('',(0.,0.,-1.));
#1139=DIRECTION('',(0.,-1.,0.));
#1140=DIRECTION('',(0.,0.,1.));
#1141=DIRECTION('',(0.,-1.,0.));
#1142=DIRECTION('center_axis',(0.,9.38138455808256E-15,-1.));
#1143=DIRECTION('ref_axis',(1.,0.,0.));
#1144=DIRECTION('center_axis',(0.,9.38138455808256E-15,-1.));
#1145=DIRECTION('ref_axis',(1.,0.,0.));
#1146=DIRECTION('center_axis',(0.,9.38138455808256E-15,-1.));
#1147=DIRECTION('ref_axis',(1.,0.,0.));
#1148=DIRECTION('center_axis',(0.,9.38138455808256E-15,-1.));
#1149=DIRECTION('ref_axis',(1.,0.,0.));
#1150=DIRECTION('center_axis',(0.,9.38138455808256E-15,-1.));
#1151=DIRECTION('ref_axis',(1.,0.,0.));
#1152=DIRECTION('',(0.,1.,9.38138455808256E-15));
#1153=DIRECTION('',(1.,0.,0.));
#1154=DIRECTION('',(5.03760447356262E-17,-1.,-9.38138455808256E-15));
#1155=DIRECTION('',(-1.,-5.03760447356263E-17,-4.72597048180081E-31));
#1156=DIRECTION('center_axis',(0.,-9.62193288008469E-15,1.));
#1157=DIRECTION('ref_axis',(1.,0.,0.));
#1158=DIRECTION('center_axis',(0.,-9.38138455808256E-15,1.));
#1159=DIRECTION('ref_axis',(1.,0.,0.));
#1160=DIRECTION('',(0.,-9.62193288008469E-15,1.));
#1161=DIRECTION('center_axis',(1.,0.,0.));
#1162=DIRECTION('ref_axis',(0.,1.,0.));
#1163=DIRECTION('',(0.,0.,1.));
#1164=DIRECTION('',(0.,-1.,0.));
#1165=DIRECTION('',(0.,0.,-1.));
#1166=DIRECTION('',(0.,1.,0.));
#1167=DIRECTION('center_axis',(0.,9.37521665239021E-15,-1.));
#1168=DIRECTION('ref_axis',(-1.,0.,0.));
#1169=DIRECTION('',(0.,-1.,-9.38138455808256E-15));
#1170=DIRECTION('',(-1.,8.88178419700125E-16,0.));
#1171=DIRECTION('',(4.44089209850063E-16,1.,9.38138455808256E-15));
#1172=DIRECTION('',(-1.,-4.44089209850271E-16,2.21417841306202E-14));
#1173=DIRECTION('',(2.22044604925031E-16,1.,9.38138455808256E-15));
#1174=DIRECTION('',(1.,-2.22044604925031E-16,0.));
#1175=DIRECTION('',(-1.77635683940025E-15,-1.,-9.38138455808256E-15));
#1176=DIRECTION('',(-1.,-8.88178419699918E-16,-2.21417841306202E-14));
#1177=DIRECTION('',(0.,1.,3.15231686887027E-14));
#1178=DIRECTION('center_axis',(-1.,0.,0.));
#1179=DIRECTION('ref_axis',(0.,-1.,-3.15231686887027E-14));
#1180=DIRECTION('',(0.,1.,0.));
#1181=DIRECTION('',(0.,9.37521665239021E-15,-1.));
#1182=DIRECTION('',(0.,1.,3.15231686887027E-14));
#1183=DIRECTION('',(0.,9.37521665239021E-15,-1.));
#1184=DIRECTION('center_axis',(-8.88178419700125E-16,-1.,-9.37521665239021E-15));
#1185=DIRECTION('ref_axis',(-1.,8.88178419700125E-16,8.33234331139693E-30));
#1186=DIRECTION('',(1.,-8.88178419700125E-16,0.));
#1187=DIRECTION('',(0.,9.37521665239021E-15,-1.));
#1188=DIRECTION('',(1.,-8.88178419700125E-16,-8.33234331139693E-30));
#1189=DIRECTION('center_axis',(2.22044604925031E-16,1.,9.37521665239021E-15));
#1190=DIRECTION('ref_axis',(1.,-2.22044604925031E-16,-2.08308582784923E-30));
#1191=DIRECTION('',(-1.,2.22044604925031E-16,0.));
#1192=DIRECTION('',(0.,9.37521665239021E-15,-1.));
#1193=DIRECTION('',(-1.,2.22044604925031E-16,2.08308582784923E-30));
#1194=DIRECTION('center_axis',(0.,-1.,0.));
#1195=DIRECTION('ref_axis',(1.,0.,0.));
#1196=DIRECTION('',(-1.,0.,0.));
#1197=DIRECTION('',(-1.,0.,0.));
#1198=DIRECTION('center_axis',(0.,-1.,-9.37521665239021E-15));
#1199=DIRECTION('ref_axis',(-1.,0.,0.));
#1200=DIRECTION('',(1.,0.,0.));
#1201=DIRECTION('',(1.,0.,0.));
#1202=DIRECTION('',(0.,9.37521665239021E-15,-1.));
#1203=DIRECTION('center_axis',(0.,0.,1.));
#1204=DIRECTION('ref_axis',(1.,0.,0.));
#1205=DIRECTION('',(1.,0.,0.));
#1206=DIRECTION('center_axis',(0.,1.,0.));
#1207=DIRECTION('ref_axis',(-1.,0.,0.));
#1208=DIRECTION('',(1.,0.,0.));
#1209=DIRECTION('center_axis',(0.,0.,1.));
#1210=DIRECTION('ref_axis',(1.,0.,0.));
#1211=DIRECTION('',(-1.,0.,0.));
#1212=DIRECTION('',(1.,-2.22044604925031E-16,0.));
#1213=DIRECTION('',(-1.,8.88178419700125E-16,0.));
#1214=DIRECTION('center_axis',(0.,1.,9.37521665239021E-15));
#1215=DIRECTION('ref_axis',(1.,0.,0.));
#1216=DIRECTION('',(-1.,0.,0.));
#1217=DIRECTION('',(0.,9.37521665239021E-15,-1.));
#1218=DIRECTION('center_axis',(8.88178419700125E-16,1.,0.));
#1219=DIRECTION('ref_axis',(-1.,8.88178419700125E-16,0.));
#1220=DIRECTION('',(0.,9.37521665239021E-15,-1.));
#1221=DIRECTION('',(0.,9.37521665239021E-15,-1.));
#1222=DIRECTION('center_axis',(-2.22044604925031E-16,-1.,0.));
#1223=DIRECTION('ref_axis',(1.,-2.22044604925031E-16,0.));
#1224=DIRECTION('',(0.,9.37521665239021E-15,-1.));
#1225=DIRECTION('',(0.,9.37521665239021E-15,-1.));
#1226=DIRECTION('center_axis',(-1.,4.44089209850063E-16,4.16343255533312E-30));
#1227=DIRECTION('ref_axis',(4.44089209850063E-16,1.,9.38138455808256E-15));
#1228=DIRECTION('',(-4.44089209850063E-16,-1.,-9.38138455808256E-15));
#1229=DIRECTION('center_axis',(0.,9.38138455808256E-15,-1.));
#1230=DIRECTION('ref_axis',(1.,0.,0.));
#1231=DIRECTION('',(-2.22044604925031E-16,-1.,-9.38138455808256E-15));
#1232=DIRECTION('',(-1.,-4.44089209850271E-16,2.21417841306202E-14));
#1233=DIRECTION('',(1.77635683940025E-15,1.,9.38138455808256E-15));
#1234=DIRECTION('',(0.,1.,9.38138455808256E-15));
#1235=DIRECTION('center_axis',(0.,-9.38138455808256E-15,1.));
#1236=DIRECTION('ref_axis',(1.,0.,0.));
#1237=DIRECTION('center_axis',(-1.,2.22044604925031E-16,2.08171627766656E-30));
#1238=DIRECTION('ref_axis',(2.22044604925031E-16,1.,9.38138455808256E-15));
#1239=DIRECTION('',(0.,9.37521665239021E-15,-1.));
#1240=DIRECTION('center_axis',(1.,0.,0.));
#1241=DIRECTION('ref_axis',(0.,-1.,-9.38138455808256E-15));
#1242=DIRECTION('center_axis',(1.,-1.77635683940025E-15,-1.66537302213325E-29));
#1243=DIRECTION('ref_axis',(-1.77635683940025E-15,-1.,-9.38138455808256E-15));
#1244=DIRECTION('',(0.,9.37521665239021E-15,-1.));
#1245=DIRECTION('center_axis',(4.44089209850058E-16,-1.,-9.62193288008469E-15));
#1246=DIRECTION('ref_axis',(1.,4.44089209850271E-16,-2.21417841306202E-14));
#1247=DIRECTION('center_axis',(0.,9.38138455808256E-15,-1.));
#1248=DIRECTION('ref_axis',(1.,0.,0.));
#1249=DIRECTION('center_axis',(0.,-9.62193288008469E-15,1.));
#1250=DIRECTION('ref_axis',(1.,0.,0.));
#1251=DIRECTION('',(0.,-9.62193288008469E-15,1.));
#1252=DIRECTION('center_axis',(-5.03760447356263E-17,1.,9.62193288008469E-15));
#1253=DIRECTION('ref_axis',(-1.,-5.03760447356263E-17,-4.72597048180081E-31));
#1254=DIRECTION('',(0.,-9.62193288008469E-15,1.));
#1255=DIRECTION('',(0.,0.,-1.));
#1256=DIRECTION('center_axis',(-1.,-5.03760447356262E-17,-4.84714921210339E-31));
#1257=DIRECTION('ref_axis',(5.03760447356262E-17,-1.,-9.38138455808256E-15));
#1258=DIRECTION('',(0.,0.,-1.));
#1259=DIRECTION('center_axis',(0.,-1.,-9.62193288008469E-15));
#1260=DIRECTION('ref_axis',(1.,0.,0.));
#1261=DIRECTION('',(0.,0.,-1.));
#1262=DIRECTION('center_axis',(1.,0.,0.));
#1263=DIRECTION('ref_axis',(0.,1.,9.38138455808256E-15));
#1264=CARTESIAN_POINT('',(0.,0.,0.));
#1265=CARTESIAN_POINT('Origin',(-21.25,21.2499999999998,-6.36769657950193));
#1266=CARTESIAN_POINT('',(-2.75,21.2499999999999,-6.36769657950193));
#1267=CARTESIAN_POINT('Origin',(-21.25,21.2499999999998,-6.36769657950193));
#1268=CARTESIAN_POINT('',(-2.75,21.2499999999999,-11.3676965795019));
#1269=CARTESIAN_POINT('',(-2.75,21.2499999999998,-6.36769657950193));
#1270=CARTESIAN_POINT('Origin',(-21.25,21.2499999999998,-11.3676965795019));
#1271=CARTESIAN_POINT('Origin',(-42.1,42.0999999999999,5.63230342049787));
#1272=CARTESIAN_POINT('',(-42.1,42.0999999999999,-6.36769657950174));
#1273=CARTESIAN_POINT('',(-42.1,0.399999999999869,-6.36769657950213));
#1274=CARTESIAN_POINT('',(-42.1,31.6749999999999,-6.36769657950183));
#1275=CARTESIAN_POINT('',(-42.1,42.0999999999999,-7.36769657950213));
#1276=CARTESIAN_POINT('',(-42.1,42.0999999999999,5.63230342049787));
#1277=CARTESIAN_POINT('',(-42.1,0.399999999999867,-7.36769657950213));
#1278=CARTESIAN_POINT('',(-42.1,0.399999999999869,-7.36769657950213));
#1279=CARTESIAN_POINT('',(-42.1,0.399999999999869,5.63230342049787));
#1280=CARTESIAN_POINT('Origin',(-42.1,0.399999999999869,5.63230342049787));
#1281=CARTESIAN_POINT('',(-0.400000000000002,0.399999999999867,-6.36769657950213));
#1282=CARTESIAN_POINT('',(-31.675,0.399999999999867,-6.36769657950213));
#1283=CARTESIAN_POINT('',(-0.4,0.399999999999867,-7.36769657950213));
#1284=CARTESIAN_POINT('',(-0.400000000000002,0.399999999999869,-7.36769657950213));
#1285=CARTESIAN_POINT('',(-0.400000000000002,0.399999999999867,5.63230342049787));
#1286=CARTESIAN_POINT('Origin',(-0.400000000000002,0.399999999999867,5.63230342049787));
#1287=CARTESIAN_POINT('',(-0.4,42.0999999999999,-6.36769657950174));
#1288=CARTESIAN_POINT('',(-0.4,10.8249999999999,-6.36769657950203));
#1289=CARTESIAN_POINT('',(-0.4,42.0999999999999,-7.36769657950213));
#1290=CARTESIAN_POINT('',(-0.4,42.0999999999999,-7.36769657950213));
#1291=CARTESIAN_POINT('',(-0.4,42.0999999999999,5.63230342049787));
#1292=CARTESIAN_POINT('Origin',(-0.4,42.0999999999999,5.63230342049787));
#1293=CARTESIAN_POINT('',(-10.825,42.0999999999999,-6.36769657950174));
#1294=CARTESIAN_POINT('',(-42.1,42.0999999999999,-7.36769657950213));
#1295=CARTESIAN_POINT('Origin',(-21.25,21.2499999999999,-7.36769657950213));
#1296=CARTESIAN_POINT('',(0.0999999999999979,42.5999999999999,-7.36769657950213));
#1297=CARTESIAN_POINT('',(0.0999999999999979,-0.100000000000131,-7.36769657950213));
#1298=CARTESIAN_POINT('',(0.0999999999999979,42.5999999999999,-7.36769657950213));
#1299=CARTESIAN_POINT('',(-42.6,42.5999999999999,-7.36769657950213));
#1300=CARTESIAN_POINT('',(-42.6,42.5999999999999,-7.36769657950213));
#1301=CARTESIAN_POINT('',(-42.6,-0.100000000000131,-7.36769657950213));
#1302=CARTESIAN_POINT('',(-42.6,-0.100000000000131,-7.36769657950213));
#1303=CARTESIAN_POINT('',(0.0999999999999979,-0.100000000000131,-7.36769657950213));
#1304=CARTESIAN_POINT('Origin',(-61.2500000000164,61.2500000000163,0.63230342049845));
#1305=CARTESIAN_POINT('',(-61.2500000000164,66.2500000000163,0.632303420498498));
#1306=CARTESIAN_POINT('',(-61.2500000000164,61.2500000000163,5.63230342049845));
#1307=CARTESIAN_POINT('Origin',(-61.2500000000164,61.2500000000163,0.63230342049845));
#1308=CARTESIAN_POINT('',(-66.2500000000164,61.2500000000163,0.63230342049845));
#1309=CARTESIAN_POINT('Origin',(-61.2500000000164,61.2500000000163,0.63230342049845));
#1310=CARTESIAN_POINT('Origin',(-61.2500000000164,61.2500000000163,0.63230342049845));
#1311=CARTESIAN_POINT('Origin',(-61.2500000000164,61.2500000000164,-6.36769657949956));
#1312=CARTESIAN_POINT('',(-61.2500000000164,66.2500000000172,-96.3676965795014));
#1313=CARTESIAN_POINT('',(-66.2500000000164,61.2500000000172,-96.3676965794997));
#1314=CARTESIAN_POINT('Origin',(-61.2500000000164,61.2500000000173,-96.3676965795013));
#1315=CARTESIAN_POINT('',(-66.2500000000164,61.2500000000164,-6.36769657949956));
#1316=CARTESIAN_POINT('',(-61.2500000000164,66.2500000000164,-6.36769657949951));
#1317=CARTESIAN_POINT('Origin',(-61.2500000000164,-18.7500000000166,0.6323034204977));
#1318=CARTESIAN_POINT('',(-66.2500000000164,-18.7500000000166,0.6323034204977));
#1319=CARTESIAN_POINT('',(-61.2500000000164,-18.7500000000167,5.6323034204977));
#1320=CARTESIAN_POINT('Origin',(-61.2500000000164,-18.7500000000166,0.632303420497699));
#1321=CARTESIAN_POINT('',(-61.2500000000164,-23.7500000000166,0.632303420497651));
#1322=CARTESIAN_POINT('Origin',(-61.2500000000164,-18.7500000000166,0.6323034204977));
#1323=CARTESIAN_POINT('Origin',(-61.2500000000164,-18.7500000000166,0.6323034204977));
#1324=CARTESIAN_POINT('Origin',(-61.2500000000164,-18.7500000000165,-6.36769657950032));
#1325=CARTESIAN_POINT('',(-66.2500000000164,-18.7500000000157,-96.3676965795022));
#1326=CARTESIAN_POINT('',(-61.2500000000164,-23.7499999999828,-96.3676965795022));
#1327=CARTESIAN_POINT('Origin',(-61.2500000000164,-18.7500000000157,-96.3676965795021));
#1328=CARTESIAN_POINT('',(-61.2500000000164,-23.7500000000165,-6.36769657950037));
#1329=CARTESIAN_POINT('',(-66.2500000000164,-18.7500000000165,-6.36769657950032));
#1330=CARTESIAN_POINT('Origin',(18.7500000000164,61.2500000000164,0.63230342049845));
#1331=CARTESIAN_POINT('',(23.7500000000164,61.2500000000164,0.63230342049845));
#1332=CARTESIAN_POINT('',(18.7500000000164,61.2500000000163,5.63230342049845));
#1333=CARTESIAN_POINT('Origin',(18.7500000000164,61.2500000000164,0.63230342049845));
#1334=CARTESIAN_POINT('',(18.7500000000164,66.2500000000164,0.632303420498498));
#1335=CARTESIAN_POINT('Origin',(18.7500000000164,61.2500000000164,0.63230342049845));
#1336=CARTESIAN_POINT('Origin',(18.7500000000164,61.2500000000164,0.63230342049845));
#1337=CARTESIAN_POINT('Origin',(18.7500000000164,61.2500000000165,-6.36769657949955));
#1338=CARTESIAN_POINT('',(23.7500000000164,61.2500000000173,-96.3676965795014));
#1339=CARTESIAN_POINT('',(18.7500000000164,66.2499999999844,-96.3676965795014));
#1340=CARTESIAN_POINT('Origin',(18.7500000000164,61.2500000000173,-96.3676965795013));
#1341=CARTESIAN_POINT('',(18.7500000000164,66.2500000000165,-6.3676965794995));
#1342=CARTESIAN_POINT('',(23.7500000000164,61.2500000000165,-6.36769657949955));
#1343=CARTESIAN_POINT('Origin',(1.2500000000082,61.2500000000164,0.63230342049845));
#1344=CARTESIAN_POINT('',(-27.1168027919608,61.2500000000163,5.63230342049845));
#1345=CARTESIAN_POINT('',(-15.3831972080556,61.2500000000163,5.63230342049845));
#1346=CARTESIAN_POINT('Ctrl Pts',(-27.1168027919608,61.2500000000163,5.63230342049845));
#1347=CARTESIAN_POINT('Ctrl Pts',(-26.4067030013295,61.8604051918442,5.63230342049846));
#1348=CARTESIAN_POINT('Ctrl Pts',(-25.5762861129142,62.3757282761287,5.51917895578417));
#1349=CARTESIAN_POINT('Ctrl Pts',(-24.1348020247455,62.9708524032518,5.33286032557895));
#1350=CARTESIAN_POINT('Ctrl Pts',(-23.5612775743277,63.1431490231317,5.26170511277081));
#1351=CARTESIAN_POINT('Ctrl Pts',(-22.4032979657572,63.370279758579,5.1621805980062));
#1352=CARTESIAN_POINT('Ctrl Pts',(-21.8187651826442,63.4249999999916,5.13445568359527));
#1353=CARTESIAN_POINT('Ctrl Pts',(-20.6812348173722,63.4249999999916,5.13445568359527));
#1354=CARTESIAN_POINT('Ctrl Pts',(-20.0967020342592,63.370279758579,5.1621805980062));
#1355=CARTESIAN_POINT('Ctrl Pts',(-18.9387224256887,63.1431490231317,5.26170511277081));
#1356=CARTESIAN_POINT('Ctrl Pts',(-18.3651979752709,62.9708524032518,5.33286032557895));
#1357=CARTESIAN_POINT('Ctrl Pts',(-16.9237138871022,62.3757282761288,5.51917895578417));
#1358=CARTESIAN_POINT('Ctrl Pts',(-16.0932969986869,61.8604051918442,5.63230342049846));
#1359=CARTESIAN_POINT('Ctrl Pts',(-15.3831972080556,61.2500000000163,5.63230342049845));
#1360=CARTESIAN_POINT('',(1.2500000000082,61.2500000000163,5.63230342049845));
#1361=CARTESIAN_POINT('',(1.2500000000082,66.2500000000164,0.632303420498498));
#1362=CARTESIAN_POINT('',(1.2500000000082,61.2500000000163,5.63230342049845));
#1363=CARTESIAN_POINT('Origin',(18.7500000000164,-18.7500000000166,0.6323034204977));
#1364=CARTESIAN_POINT('',(18.7500000000164,-23.7500000000166,0.632303420497652));
#1365=CARTESIAN_POINT('',(18.7500000000164,-18.7500000000166,5.6323034204977));
#1366=CARTESIAN_POINT('Origin',(18.7500000000164,-18.7500000000166,0.6323034204977));
#1367=CARTESIAN_POINT('',(23.7500000000164,-18.7500000000166,0.6323034204977));
#1368=CARTESIAN_POINT('Origin',(18.7500000000164,-18.7500000000166,0.6323034204977));
#1369=CARTESIAN_POINT('Origin',(18.7500000000164,-18.7500000000166,0.6323034204977));
#1370=CARTESIAN_POINT('Origin',(18.7500000000164,-18.7500000000165,-6.36769657950031));
#1371=CARTESIAN_POINT('',(18.7500000000164,-23.7500000000157,-96.3676965795023));
#1372=CARTESIAN_POINT('',(23.7500000000164,-18.7500000000156,-96.3676965795004));
#1373=CARTESIAN_POINT('Origin',(18.7500000000164,-18.7500000000156,-96.3676965795021));
#1374=CARTESIAN_POINT('',(23.7500000000164,-18.7500000000165,-6.36769657950031));
#1375=CARTESIAN_POINT('',(18.7500000000164,-23.7500000000165,-6.36769657950036));
#1376=CARTESIAN_POINT('Origin',(18.7500000000164,-1.25000000000834,0.632303420497864));
#1377=CARTESIAN_POINT('',(18.7500000000164,-1.25000000000839,5.63230342049786));
#1378=CARTESIAN_POINT('',(23.7500000000164,-1.25000000000834,0.632303420497864));
#1379=CARTESIAN_POINT('Origin',(-43.7500000000082,-18.7500000000166,0.6323034204977));
#1380=CARTESIAN_POINT('',(-15.3831972080365,-18.7500000000166,5.6323034204977));
#1381=CARTESIAN_POINT('',(-27.11680279198,-18.7500000000166,5.6323034204977));
#1382=CARTESIAN_POINT('Ctrl Pts',(-15.3831972080365,-18.7500000000167,5.6323034204977));
#1383=CARTESIAN_POINT('Ctrl Pts',(-16.0932969986716,-19.3604051918514,5.63230342049769));
#1384=CARTESIAN_POINT('Ctrl Pts',(-16.9237138870931,-19.8757282761416,5.51917895578081));
#1385=CARTESIAN_POINT('Ctrl Pts',(-18.3651979752692,-20.4708524032681,5.33286032557235));
#1386=CARTESIAN_POINT('Ctrl Pts',(-18.9387224256873,-20.6431490231482,5.26170511276342));
#1387=CARTESIAN_POINT('Ctrl Pts',(-20.0967020342584,-20.8702797585957,5.16218059799772));
#1388=CARTESIAN_POINT('Ctrl Pts',(-20.6812348173718,-20.9250000000084,5.13445568358649));
#1389=CARTESIAN_POINT('Ctrl Pts',(-21.8187651826446,-20.9250000000084,5.13445568358649));
#1390=CARTESIAN_POINT('Ctrl Pts',(-22.403297965758,-20.8702797585957,5.16218059799772));
#1391=CARTESIAN_POINT('Ctrl Pts',(-23.5612775743291,-20.6431490231482,5.26170511276342));
#1392=CARTESIAN_POINT('Ctrl Pts',(-24.1348020247472,-20.4708524032681,5.33286032557235));
#1393=CARTESIAN_POINT('Ctrl Pts',(-25.5762861129234,-19.8757282761416,5.51917895578081));
#1394=CARTESIAN_POINT('Ctrl Pts',(-26.4067030013448,-19.3604051918514,5.6323034204977));
#1395=CARTESIAN_POINT('Ctrl Pts',(-27.11680279198,-18.7500000000166,5.6323034204977));
#1396=CARTESIAN_POINT('',(-43.7500000000082,-18.7500000000166,5.6323034204977));
#1397=CARTESIAN_POINT('',(-43.7500000000082,-23.7500000000166,0.632303420497651));
#1398=CARTESIAN_POINT('',(-43.7500000000082,-18.7500000000166,5.6323034204977));
#1399=CARTESIAN_POINT('Origin',(-61.2500000000164,43.7500000000081,0.632303420498286));
#1400=CARTESIAN_POINT('',(-61.2500000000164,43.750000000008,5.63230342049829));
#1401=CARTESIAN_POINT('',(-66.2500000000164,43.7500000000081,0.632303420498286));
#1402=CARTESIAN_POINT('Origin',(23.7500000000164,66.2500000000165,-6.36769657949951));
#1403=CARTESIAN_POINT('',(13.7500000000164,66.2499999999843,-96.3676965795013));
#1404=CARTESIAN_POINT('',(13.7500000000164,66.2499999999843,-96.3676965795013));
#1405=CARTESIAN_POINT('',(13.7500000000164,66.2499999999835,-11.3676965795015));
#1406=CARTESIAN_POINT('',(13.7500000000164,66.2499999999835,-6.36769657950128));
#1407=CARTESIAN_POINT('',(-56.2499999999836,66.2500000000164,-11.3676965795015));
#1408=CARTESIAN_POINT('',(-66.2499999999836,66.2500000000164,-11.3676965795015));
#1409=CARTESIAN_POINT('',(-56.2499999999836,66.2500000000172,-96.3676965795013));
#1410=CARTESIAN_POINT('',(-56.2499999999836,66.2500000000164,-6.36769657950128));
#1411=CARTESIAN_POINT('',(-66.2499999999836,66.2500000000172,-96.3676965795015));
#1412=CARTESIAN_POINT('Origin',(23.7500000000164,-23.7500000000165,-6.36769657950036));
#1413=CARTESIAN_POINT('',(23.7500000000164,66.2499999999844,-96.3676965795015));
#1414=CARTESIAN_POINT('',(23.7499999999835,-13.7500000000165,-11.3676965795023));
#1415=CARTESIAN_POINT('',(23.75,-13.7500000000166,-86.3676965795014));
#1416=CARTESIAN_POINT('',(23.7499999999835,-13.7500000000165,-6.36769657950203));
#1417=CARTESIAN_POINT('',(23.7500000000164,56.2499999999835,-11.3676965795016));
#1418=CARTESIAN_POINT('',(23.7500000000164,66.2499999999835,-11.3676965795015));
#1419=CARTESIAN_POINT('',(23.75,56.2499999999834,-86.3676965795014));
#1420=CARTESIAN_POINT('',(23.7500000000164,56.2499999999835,-6.36769657950138));
#1421=CARTESIAN_POINT('',(23.75,52.7499999999999,-86.3676965795014));
#1422=CARTESIAN_POINT('',(23.75,52.7499999999999,-86.3676965795014));
#1423=CARTESIAN_POINT('',(23.75,52.7499999999999,-91.3676965795014));
#1424=CARTESIAN_POINT('',(23.75,52.7499999999999,-96.3676965795014));
#1425=CARTESIAN_POINT('',(23.75,-10.2500000000001,-91.3676965795014));
#1426=CARTESIAN_POINT('',(23.75,52.7499999999999,-91.3676965795014));
#1427=CARTESIAN_POINT('',(23.75,-10.2500000000001,-86.3676965795014));
#1428=CARTESIAN_POINT('',(23.75,-10.2500000000001,-96.3676965795014));
#1429=CARTESIAN_POINT('',(23.75,-10.2500000000001,-86.3676965795014));
#1430=CARTESIAN_POINT('Origin',(-21.25,21.2499999999998,5.63230342049807));
#1431=CARTESIAN_POINT('',(-30.2500000000082,-11.9250000000084,5.63230342049777));
#1432=CARTESIAN_POINT('Origin',(-21.2500000000082,-11.9250000000084,5.63230342049776));
#1433=CARTESIAN_POINT('Origin',(-21.2500000000082,-11.9250000000084,5.63230342049776));
#1434=CARTESIAN_POINT('',(-30.2500000000082,54.4249999999916,5.63230342049839));
#1435=CARTESIAN_POINT('Origin',(-21.2500000000082,54.4249999999916,5.63230342049839));
#1436=CARTESIAN_POINT('Origin',(-21.2500000000082,54.4249999999916,5.63230342049839));
#1437=CARTESIAN_POINT('',(-42.6,-0.100000000000184,5.63230342049787));
#1438=CARTESIAN_POINT('',(-42.6,42.5999999999998,5.63230342049827));
#1439=CARTESIAN_POINT('',(-42.6,-0.100000000000187,5.63230342049787));
#1440=CARTESIAN_POINT('',(0.0999999999999979,42.5999999999998,5.63230342049827));
#1441=CARTESIAN_POINT('',(-42.6,42.5999999999998,5.63230342049827));
#1442=CARTESIAN_POINT('',(0.0999999999999979,-0.100000000000184,5.63230342049787));
#1443=CARTESIAN_POINT('',(0.0999999999999979,42.5999999999998,5.63230342049827));
#1444=CARTESIAN_POINT('',(0.1,-0.100000000000184,5.63230342049787));
#1445=CARTESIAN_POINT('Origin',(-21.2500000000082,-11.9250000000083,-6.36769657950224));
#1446=CARTESIAN_POINT('',(-30.2500000000082,-11.9250000000082,-11.3676965795022));
#1447=CARTESIAN_POINT('Origin',(-21.2500000000082,-11.9250000000082,-11.3676965795022));
#1448=CARTESIAN_POINT('',(-30.2500000000082,-11.9250000000083,-6.36769657950224));
#1449=CARTESIAN_POINT('Origin',(-65.25,-13.7499999999837,-96.3676965795014));
#1450=CARTESIAN_POINT('',(-65.25,-10.2500000000001,-91.3676965795014));
#1451=CARTESIAN_POINT('',(-65.25,-10.2500000000001,-86.3676965795014));
#1452=CARTESIAN_POINT('',(-65.25,-10.2500000000001,-96.3676965795014));
#1453=CARTESIAN_POINT('',(-65.25,52.7499999999999,-91.3676965795014));
#1454=CARTESIAN_POINT('',(-65.25,3.7500000000081,-91.3676965795014));
#1455=CARTESIAN_POINT('',(-65.25,52.7499999999999,-86.3676965795014));
#1456=CARTESIAN_POINT('',(-65.25,52.7499999999999,-96.3676965795014));
#1457=CARTESIAN_POINT('',(-65.25,52.7499999999999,-86.3676965795014));
#1458=CARTESIAN_POINT('Origin',(18.7500000000164,61.2499999999844,-96.3676965795013));
#1459=CARTESIAN_POINT('',(-56.2499999999836,56.2500000000172,-96.3676965795014));
#1460=CARTESIAN_POINT('',(-56.2499999999836,66.2500000000172,-96.3676965795013));
#1461=CARTESIAN_POINT('',(13.7500000000164,56.2499999999843,-96.3676965795014));
#1462=CARTESIAN_POINT('',(-56.2499999999836,56.2500000000163,-96.3676965795014));
#1463=CARTESIAN_POINT('',(13.7500000000164,56.2499999999843,-96.3676965795014));
#1464=CARTESIAN_POINT('',(13.7499999999835,-23.7500000000157,-96.3676965795021));
#1465=CARTESIAN_POINT('',(23.7499999999835,-23.7500000000157,-96.3676965795024));
#1466=CARTESIAN_POINT('',(13.7499999999835,-13.7500000000157,-96.367696579502));
#1467=CARTESIAN_POINT('',(13.7499999999835,-23.7500000000157,-96.3676965795021));
#1468=CARTESIAN_POINT('',(-56.2500000000164,-13.7499999999828,-96.367696579502));
#1469=CARTESIAN_POINT('',(13.7499999999835,-13.7500000000166,-96.3676965795014));
#1470=CARTESIAN_POINT('',(-56.2500000000164,-23.7499999999828,-96.3676965795021));
#1471=CARTESIAN_POINT('',(-56.2500000000164,-13.7499999999828,-96.367696579502));
#1472=CARTESIAN_POINT('',(-56.2500000000164,-23.7499999999828,-96.3676965795021));
#1473=CARTESIAN_POINT('',(-66.2500000000164,-23.7499999999828,-96.3676965795024));
#1474=CARTESIAN_POINT('Origin',(-66.2500000000164,66.2500000000164,-6.36769657949951));
#1475=CARTESIAN_POINT('',(-66.25,-13.7499999999837,-86.3676965795014));
#1476=CARTESIAN_POINT('',(-66.25,56.2500000000163,-86.3676965795014));
#1477=CARTESIAN_POINT('',(-66.25,-10.2500000000001,-86.3676965795014));
#1478=CARTESIAN_POINT('',(-66.2499999999836,56.2500000000164,-11.3676965795016));
#1479=CARTESIAN_POINT('',(-66.2499999999836,56.2500000000164,-6.36769657950138));
#1480=CARTESIAN_POINT('',(-66.2500000000164,-13.7499999999836,-11.3676965795023));
#1481=CARTESIAN_POINT('',(-66.2500000000164,-23.7499999999836,-11.3676965795023));
#1482=CARTESIAN_POINT('',(-66.2500000000164,-13.7499999999836,-6.36769657950203));
#1483=CARTESIAN_POINT('Origin',(-56.2499999999836,56.2500000000164,-6.36769657950138));
#1484=CARTESIAN_POINT('',(-56.2499999999836,56.2500000000163,-86.3676965795014));
#1485=CARTESIAN_POINT('',(-60.7499999999918,56.2500000000171,-86.3676965795014));
#1486=CARTESIAN_POINT('',(-56.2499999999836,56.2500000000164,-11.3676965795016));
#1487=CARTESIAN_POINT('',(-56.2499999999836,56.2500000000164,-6.36769657950138));
#1488=CARTESIAN_POINT('',(-38.7499999999918,56.2500000000164,-11.3676965795016));
#1489=CARTESIAN_POINT('Origin',(13.7499999999835,-13.7500000000165,-6.36769657950203));
#1490=CARTESIAN_POINT('',(13.7499999999835,-13.7500000000166,-86.3676965795014));
#1491=CARTESIAN_POINT('',(18.2499999999918,-13.7500000000158,-86.3676965795014));
#1492=CARTESIAN_POINT('',(13.7499999999835,-13.7500000000165,-11.3676965795023));
#1493=CARTESIAN_POINT('',(13.7499999999835,-13.7500000000165,-6.36769657950203));
#1494=CARTESIAN_POINT('',(-3.75000000000823,-13.7500000000164,-11.3676965795023));
#1495=CARTESIAN_POINT('Origin',(-65.25,52.7499999999999,-96.3676965795014));
#1496=CARTESIAN_POINT('',(-65.25,52.7499999999999,-91.3676965795014));
#1497=CARTESIAN_POINT('',(-65.25,52.7499999999999,-86.3676965795014));
#1498=CARTESIAN_POINT('Origin',(23.7500000000164,56.2499999999835,-6.36769657950138));
#1499=CARTESIAN_POINT('',(13.7500000000164,56.2500000000162,-86.3676965795014));
#1500=CARTESIAN_POINT('',(23.2500000000082,56.2499999999842,-86.3676965795014));
#1501=CARTESIAN_POINT('',(13.7500000000164,56.2499999999835,-11.3676965795016));
#1502=CARTESIAN_POINT('',(1.25000000000822,56.2499999999836,-11.3676965795016));
#1503=CARTESIAN_POINT('',(13.7500000000164,56.2499999999835,-6.36769657950138));
#1504=CARTESIAN_POINT('Origin',(-21.25,21.2499999999999,-91.3676965795014));
#1505=CARTESIAN_POINT('',(22.75,-10.2500000000001,-91.3676965795014));
#1506=CARTESIAN_POINT('Origin',(22.75,-10.2500000000001,-96.3676965795014));
#1507=CARTESIAN_POINT('',(22.75,-10.2500000000001,-86.3676965795014));
#1508=CARTESIAN_POINT('Origin',(-21.25,-12.0000000000083,-86.3676965795014));
#1509=CARTESIAN_POINT('',(-56.2500000000164,-13.7500000000165,-86.3676965795014));
#1510=CARTESIAN_POINT('',(-65.7500000000082,-13.7499999999829,-86.3676965795014));
#1511=CARTESIAN_POINT('',(13.7499999999835,-13.7500000000166,-86.3676965795014));
#1512=CARTESIAN_POINT('',(-56.2499999999836,56.2500000000163,-86.3676965795014));
#1513=CARTESIAN_POINT('Origin',(-66.2500000000164,-13.7499999999836,-6.36769657950203));
#1514=CARTESIAN_POINT('',(-56.2500000000164,-13.7499999999836,-11.3676965795023));
#1515=CARTESIAN_POINT('',(-43.7500000000082,-13.7499999999836,-11.3676965795023));
#1516=CARTESIAN_POINT('',(-56.2500000000164,-13.7499999999836,-6.36769657950203));
#1517=CARTESIAN_POINT('Origin',(22.75,56.2500000000162,-96.3676965795014));
#1518=CARTESIAN_POINT('',(13.7500000000164,56.2499999999835,-6.36769657950138));
#1519=CARTESIAN_POINT('',(-56.2499999999836,56.2500000000164,-6.36769657950138));
#1520=CARTESIAN_POINT('Origin',(-65.25,-13.7500000000165,-96.3676965795014));
#1521=CARTESIAN_POINT('',(13.7499999999835,-13.7500000000165,-6.36769657950203));
#1522=CARTESIAN_POINT('',(-56.2500000000164,-13.7499999999836,-6.36769657950203));
#1523=CARTESIAN_POINT('Origin',(13.7500000000164,56.2499999999835,-6.36769657950138));
#1524=CARTESIAN_POINT('',(13.7500000000164,38.7499999999918,-11.3676965795018));
#1525=CARTESIAN_POINT('Origin',(-21.25,21.25,-11.3676965795019));
#1526=CARTESIAN_POINT('',(13.7499999999835,-23.7500000000165,-11.3676965795023));
#1527=CARTESIAN_POINT('',(13.7499999999835,-1.25000000000824,-11.3676965795021));
#1528=CARTESIAN_POINT('',(-56.2500000000164,-23.7499999999836,-11.3676965795023));
#1529=CARTESIAN_POINT('',(23.7499999999835,-23.7500000000165,-11.3676965795023));
#1530=CARTESIAN_POINT('',(-56.2500000000164,3.75000000000824,-11.3676965795021));
#1531=CARTESIAN_POINT('',(-56.2499999999836,43.7500000000082,-11.3676965795017));
#1532=CARTESIAN_POINT('',(-30.2500000000082,54.4249999999918,-11.3676965795016));
#1533=CARTESIAN_POINT('Origin',(-21.2500000000082,54.4249999999918,-11.3676965795016));
#1534=CARTESIAN_POINT('Origin',(13.7499999999835,-23.7500000000165,-6.36769657950213));
#1535=CARTESIAN_POINT('',(13.7499999999835,-23.7500000000165,-6.36769657950213));
#1536=CARTESIAN_POINT('Origin',(-56.2499999999836,66.2500000000164,-6.36769657950128));
#1537=CARTESIAN_POINT('Origin',(-56.2500000000164,-13.7499999999836,-6.36769657950203));
#1538=CARTESIAN_POINT('',(-56.2500000000164,-23.7499999999836,-6.36769657950213));
#1539=CARTESIAN_POINT('Origin',(-66.2500000000164,-23.7500000000165,-6.36769657950036));
#1540=CARTESIAN_POINT('Origin',(-21.25,21.2499999999999,-6.36769657950193));
#1541=CARTESIAN_POINT('Origin',(-21.2500000000082,54.4249999999917,-6.36769657950162));
#1542=CARTESIAN_POINT('',(-30.2500000000082,54.4249999999917,-6.36769657950162));
#1543=CARTESIAN_POINT('Origin',(0.1,-0.100000000000069,-6.36769657950213));
#1544=CARTESIAN_POINT('',(-42.6,-0.100000000000071,-6.36769657950213));
#1545=CARTESIAN_POINT('',(0.0999999999999979,-0.100000000000131,5.63230342049787));
#1546=CARTESIAN_POINT('Origin',(0.0999999999999979,42.5999999999999,-6.36769657950173));
#1547=CARTESIAN_POINT('',(0.0999999999999979,42.5999999999999,5.63230342049787));
#1548=CARTESIAN_POINT('Origin',(-42.6,42.5999999999999,-6.36769657950173));
#1549=CARTESIAN_POINT('',(-42.6,42.5999999999999,5.63230342049787));
#1550=CARTESIAN_POINT('Origin',(-42.6,-0.100000000000071,-6.36769657950213));
#1551=UNCERTAINTY_MEASURE_WITH_UNIT(LENGTH_MEASURE(0.01),#1555,
'DISTANCE_ACCURACY_VALUE',
'Maximum model space distance between geometric entities at asserted c
onnectivities');
#1552=UNCERTAINTY_MEASURE_WITH_UNIT(LENGTH_MEASURE(0.01),#1555,
'DISTANCE_ACCURACY_VALUE',
'Maximum model space distance between geometric entities at asserted c
onnectivities');
#1553=(
GEOMETRIC_REPRESENTATION_CONTEXT(3)
GLOBAL_UNCERTAINTY_ASSIGNED_CONTEXT((#1551))
GLOBAL_UNIT_ASSIGNED_CONTEXT((#1555,#1557,#1558))
REPRESENTATION_CONTEXT('','3D')
);
#1554=(
GEOMETRIC_REPRESENTATION_CONTEXT(3)
GLOBAL_UNCERTAINTY_ASSIGNED_CONTEXT((#1552))
GLOBAL_UNIT_ASSIGNED_CONTEXT((#1555,#1557,#1558))
REPRESENTATION_CONTEXT('','3D')
);
#1555=(
LENGTH_UNIT()
NAMED_UNIT(*)
SI_UNIT(.MILLI.,.METRE.)
);
#1556=(
LENGTH_UNIT()
NAMED_UNIT(*)
SI_UNIT($,.METRE.)
);
#1557=(
NAMED_UNIT(*)
PLANE_ANGLE_UNIT()
SI_UNIT($,.RADIAN.)
);
#1558=(
NAMED_UNIT(*)
SI_UNIT($,.STERADIAN.)
SOLID_ANGLE_UNIT()
);
#1559=SHAPE_DEFINITION_REPRESENTATION(#1560,#1561);
#1560=PRODUCT_DEFINITION_SHAPE('',$,#1563);
#1561=SHAPE_REPRESENTATION('',(#943),#1553);
#1562=PRODUCT_DEFINITION_CONTEXT('part definition',#1567,'design');
#1563=PRODUCT_DEFINITION('2026-06-08-08-46-28-074','Component1',#1564,#1562);
#1564=PRODUCT_DEFINITION_FORMATION('',$,#1569);
#1565=PRODUCT_RELATED_PRODUCT_CATEGORY('Component1','Component1',(#1569));
#1566=APPLICATION_PROTOCOL_DEFINITION('international standard',
'automotive_design',2009,#1567);
#1567=APPLICATION_CONTEXT(
'Core Data for Automotive Mechanical Design Process');
#1568=PRODUCT_CONTEXT('part definition',#1567,'mechanical');
#1569=PRODUCT('2026-06-08-08-46-28-074','Component1',$,(#1568));
#1570=PRESENTATION_STYLE_ASSIGNMENT((#1572));
#1571=PRESENTATION_STYLE_ASSIGNMENT((#1573));
#1572=SURFACE_STYLE_USAGE(.BOTH.,#1574);
#1573=SURFACE_STYLE_USAGE(.BOTH.,#1575);
#1574=SURFACE_SIDE_STYLE('',(#1576));
#1575=SURFACE_SIDE_STYLE('',(#1577));
#1576=SURFACE_STYLE_FILL_AREA(#1578);
#1577=SURFACE_STYLE_FILL_AREA(#1579);
#1578=FILL_AREA_STYLE('Plate',(#1580));
#1579=FILL_AREA_STYLE('Opaque(160,160,160)',(#1581));
#1580=FILL_AREA_STYLE_COLOUR('Plate',#1582);
#1581=FILL_AREA_STYLE_COLOUR('Opaque(160,160,160)',#1583);
#1582=COLOUR_RGB('Plate',0.6,0.6,0.6);
#1583=COLOUR_RGB('Opaque(160,160,160)',0.627450980392157,0.627450980392157,
0.627450980392157);
ENDSEC;
END-ISO-10303-21;
